<svg xmlns="http://www.w3.org/2000/svg" width="1058.003" height="703.536" viewBox="0 0 1058.003 703.536"><defs><style>.a{fill:#f28696;}.b{fill:#fbc6b4;}.c{fill:#f4dd7d;}.d,.n{fill:none;}.e{fill:#ff8000;}.f{fill:#d16300;}.g{fill:#e86e00;}.h{fill:#1d1b3a;}.i{fill:#f8c558;}.j{fill:#e13c22;}.k{fill:#e56355;}.l{fill:#cc2c1b;}.m,.o{fill:#fbc343;}.m{opacity:0.2;}.n{stroke:#fbc343;stroke-miterlimit:10;stroke-width:8.529px;}.p{fill:#f0f0f0;}.q{fill:#fff;}</style></defs><g transform="translate(88.003 -64)"><path class="a" d="M970,274.2c0,100.523-77.353,177.876-177.876,177.876S605.975,374.728,605.975,274.2A182.013,182.013,0,1,1,970,274.2Z"/><g transform="translate(831.491 444.058)"><path class="b" d="M855.577,455.455l8.6-5.78a17.572,17.572,0,0,1,24.316,4.77l1.376,2.047a17.573,17.573,0,0,1-4.77,24.316l-8.6,5.78c-8,5.376-37.373,15.216-42.748,7.218l-1.376-2.047C827,483.76,847.578,460.83,855.577,455.455Z" transform="translate(-831.491 -446.713)"/></g><g transform="translate(809.747 291.946)"><path class="b" d="M848.332,326.707l-7.7,6.941a17.573,17.573,0,0,1-24.747-1.276l-1.652-1.831a17.573,17.573,0,0,1,1.276-24.747l7.7-6.941c7.156-6.455,34.839-20.359,41.293-13.2l1.652,1.832C872.609,294.638,855.488,320.252,848.332,326.707Z" transform="translate(-809.747 -283.655)"/></g><g transform="translate(571.119 237.689)"><path class="b" d="M609.905,251.451l6.746,7.868a17.572,17.572,0,0,1-1.9,24.707l-1.872,1.606a17.574,17.574,0,0,1-24.707-1.9l-6.746-7.868c-6.273-7.316-19.477-35.339-12.161-41.612l1.872-1.605C578.456,226.377,603.632,244.135,609.905,251.451Z" transform="translate(-567.119 -231.332)"/></g><g transform="translate(-88.003 64)"><path class="c" d="M264.519,292.415c0,97.347-74.909,172.255-172.255,172.255S-88,389.762-88,292.415a176.261,176.261,0,1,1,352.522,0Z" transform="translate(88.003 -64)"/><rect class="d" width="396.048" height="370.346" rx="21.145" transform="translate(34.589)"/><g transform="translate(353.637 172.786)"><path class="b" d="M303,278.477l-7.453,6.722a17.018,17.018,0,0,1-23.965-1.235l-1.6-1.774a17.019,17.019,0,0,1,1.236-23.965l7.452-6.722c6.931-6.25,33.739-19.715,39.989-12.785l1.6,1.774C326.508,247.422,309.929,272.227,303,278.477Z" transform="translate(-265.634 -236.786)"/></g><g transform="translate(203.694 145.853)"><path class="e" d="M189.011,255.6c-27.249-37.774-68.293-44.99-73.32-45.746a78.133,78.133,0,0,1,64.58,73.777c.052,1.055.078,2.123.078,3.191v46.71C240.384,367.215,296,285.975,296,285.975l-27.744-25.752C245.8,284.659,218.071,295.887,189.011,255.6Z" transform="translate(-115.691 -209.853)"/></g><g transform="translate(70.762 147.782)"><path class="e" d="M73.551,211.782,57,461,1.888,456.867s-8.283-40.643-16.039-78.8-.69-104.78,18.673-123.425S73.551,211.782,73.551,211.782Z" transform="translate(17.241 -211.782)"/></g><g transform="translate(96.88 378.365)"><path class="b" d="M22.13,480.47,14.6,473.832a17.018,17.018,0,0,1-1.5-23.95l1.579-1.791a17.018,17.018,0,0,1,23.95-1.5l7.527,6.638c7,6.172,23.433,31.27,17.26,38.27l-1.579,1.792C55.663,500.286,29.13,486.642,22.13,480.47Z" transform="translate(-8.877 -442.365)"/></g><g transform="translate(49.642 144.711)"><path class="e" d="M-38.361,349.114c0,48.611,12.14,88.209,49.979,124.68,1.3-.377,5.158-1.237,14.915-10.654,6.135-5.9,10.355-19.3,10.355-19.3s-1.98-3.257-4.793-8.819l13.716.013,84.991.079,48.4.052a7.011,7.011,0,0,0,7.021-7.464l-5.874-94.162v-46.71c0-1.068-.026-2.136-.079-3.191a78.132,78.132,0,0,0-64.58-73.777l-.508-.078a78.521,78.521,0,0,0-12.948-1.068H74.571a78.166,78.166,0,0,0-12.909,1.068,76.883,76.883,0,0,0-16.555,4.689C-.053,230.49-38.348,286.7-38.361,349.114Z" transform="translate(38.361 -208.711)"/></g><g transform="translate(144.261 143)"><path class="f" d="M57,461l11,2,21,2c22,0,27-2,40-4l15-3-1.309-24.6L128.584,223.009S118.541,207,114.126,207H86.459a78.146,78.146,0,0,0-12.908,1.068l-1.081,15.37L57.7,433.319,56.26,460.045A.828.828,0,0,0,57,461Z" transform="translate(-56.258 -207)"/></g><g transform="translate(215.811 160.488)"><path class="e" d="M127.808,224.488,143,458l13-4a189.48,189.48,0,0,0,21-10l11.406-7.371L171.975,332.635s-6.438-36.678-12.319-57.026S127.808,224.488,127.808,224.488Z" transform="translate(-127.808 -224.488)"/></g><g transform="translate(101.266 221.524)"><path class="g" d="M49.4,285.524S40.565,305.09,33.96,335.471s2.928,108.365,2.928,108.365l-4.8-9.315s-21.709-44.563-18.506-71.972S27.519,310.868,49.4,285.524Z" transform="translate(-13.263 -285.524)"/></g><g transform="translate(137.096 15.034)"><path class="b" d="M72.386,228.236c6.773,3.269,17,4.867,27.99,4.867,11.462,0,21.713-2.241,28.487-5.758l-.925-13.716-.078-1.146a.08.08,0,0,0-.052-.013h.052a7.89,7.89,0,0,1-1.511-.807,6.426,6.426,0,0,1-2.983-5.771,36.759,36.759,0,0,1,1.433-5.614l1.524-5.835.026-.065,5.5-21.193-55.138-4.832s4.715,25.347,3.973,34.739c-.5,6.226-7.327,5.629-7.327,5.629Z" transform="translate(-49.093 -79.034)"/><g transform="translate(17.001 23.922)"><path class="b" d="M66.124,151.1c.922,25.635,17.024,49.334,42.659,48.413s48.2-.012,50.175-51.75c1.369-35.91-22.45-45.67-48.086-44.748A46.446,46.446,0,0,0,66.124,151.1Z" transform="translate(-66.093 -102.955)"/></g><path class="h" d="M152.361,111.609c3.525,11.153,1.957,13.448-30.738,15.192-32.56,1.844-37.853-.743-35.4,7.181,7.453,23.51-14.992,16.835-5.845,44.907,9.1,28.038-16.327,9.017-26.032-14.12-2.024-4.632-13.409-27.576,5.472-59.506C81.909,67.99,139.394,70.741,152.361,111.609Z" transform="translate(-49.093 -79.034)"/></g></g><g transform="translate(705.644 68.513)"><path class="h" d="M766.644,71.855c-20.2,5.578-34.166,36.765-40.2,78.069s-35.676,93.131-11.38,110.06,71.453-11.816,101.657,21.4,78.7,41.377,78.7,41.377,33.135-20.735,28.856-91.058-52.563-51.346-69.755-82.183S834.912,53,766.644,71.855Z" transform="translate(-705.644 -68.513)"/><path class="b" d="M822.2,171.083,775.878,176.5a1.983,1.983,0,0,0-1.673,2.523l5,17.214.019.062,1.566,5.365,1.485,5.153.314,1.065,1.9.323a1.982,1.982,0,0,1,.973,3.449h0a1.973,1.973,0,0,0-.437,2.453c1.328,2.368,5.314,6.726,16.79,7.345,13.062.7,19.484-4.223,21.35-5.992a1.949,1.949,0,0,0,.6-1.4l.635-40.978A1.982,1.982,0,0,0,822.2,171.083Z" transform="translate(-705.644 -68.513)"/><g transform="translate(38.541 36.656)"><path class="b" d="M831.218,150.934c-1.525,23.7-16.671,41.725-40.045,45.948-17.895,3.234-30.459-5.512-45.793-51.471-7.517-22.531,21.977-41.682,45.68-40.157A43.008,43.008,0,0,1,831.218,150.934Z" transform="translate(-744.186 -105.169)"/></g><path class="h" d="M833.035,140.971s-55.226,11.772-80.607-19.978c0,0,15.856,22.654,28.67,21.856,0,0-18.438,3.539-29.081-18.171,0,0-5.662,18.248-15.356,21.019,0,0-2.672-52.881,42.794-54.337S833.156,120.238,833.035,140.971Z" transform="translate(-705.644 -68.513)"/></g><g transform="translate(589.204 188.867)"><g transform="translate(243.124 19.067)"><path class="i" d="M832.328,208.28l17.391,234.255,45.5-6.205s7.709-15.945,15.755-55.532.717-108.705-19.372-128.048S832.328,208.28,832.328,208.28Z" transform="translate(-832.328 -208.28)"/></g><g transform="translate(0 19.148)"><path class="j" d="M700.2,255.821c28.271-39.189,70.852-46.676,76.068-47.46a81.061,81.061,0,0,0-67,76.541c-.054,1.1-.081,2.2-.081,3.311v48.459C646.907,371.618,589.2,287.334,589.2,287.334l28.784-26.716C641.285,285.969,670.056,297.618,700.2,255.821Z" transform="translate(-589.204 -208.361)"/></g><g transform="translate(113.664 17.963)"><path class="j" d="M936.094,352.839c0,50.432-12.594,91.513-51.851,129.351-1.352-.392-5.351-1.283-15.473-11.054-6.365-6.121-10.743-20.027-10.743-20.027S856,447,864,440l-15,4-85,6-13-2-17-5c-8-2-22-8-31.132-12.875l6.32-93.448v-48.46c0-1.108.028-2.216.081-3.311a81.062,81.062,0,0,1,67-76.541l.527-.081a81.376,81.376,0,0,1,13.432-1.108h28.7a81.009,81.009,0,0,1,13.392,1.108,79.774,79.774,0,0,1,17.176,4.865C896.351,229.771,936.081,288.082,936.094,352.839Z" transform="translate(-702.868 -207.176)"/></g><g transform="translate(171.39 17.963)"><path class="k" d="M826.967,448.74C815.688,450.888,806,453,793,452H780l-15-2a8.887,8.887,0,0,1-4.406-7.945h0l14.635-218.271,1.041-15.419.527-.081a81.376,81.376,0,0,1,13.432-1.108h28.7a81.009,81.009,0,0,1,13.392,1.108l1.121,15.946L848.77,444.042Z" transform="translate(-760.594 -207.176)"/></g><g transform="translate(181.883)"><path class="b" d="M829.313,215.952c-7.035,3.4-17.265,22.709-28.66,22.709-11.9,0-22.531-19.5-29.566-23.148,0,0,11.753-3.894,9.929-19.664.164.548.288,1.028.369,1.4a6.36,6.36,0,0,0,1.413,2.976c10.039-1.728,16.908-4.937,21.6-8.6a27.19,27.19,0,0,1,3.428-.987c4.485-.81,13.865-3.278,13.384,1.111C819.8,204.844,829.313,215.952,829.313,215.952Z" transform="translate(-771.087 -189.213)"/></g><g transform="translate(114.796 19.148)"><path class="j" d="M776.272,208.361,766,450l-62-19,6.843-97.76s26.051-42.71,32.152-65.333S776.272,208.361,776.272,208.361Z" transform="translate(-704 -208.361)"/></g><g transform="translate(255.844 97.654)"><path class="l" d="M845.048,286.867s9.164,18.8,16.016,48S862.129,439,862.129,439l6.2-10.107s17.191-41.668,13.868-68.007S867.746,311.222,845.048,286.867Z" transform="translate(-845.048 -286.867)"/></g></g><g transform="translate(198.166 77.281)"><path class="m" d="M579.687,333.845c0,57.931-39.613,112.754-92.165,129.1H416.438c-54.716-14.98-94.948-69.629-94.948-129.1a129.1,129.1,0,1,1,258.2,0Z" transform="translate(-198.166 -67.822)"/><g transform="translate(77.507)"><line class="n" y2="96.393" transform="translate(174.916)"/><line class="n" x1="84.493" y1="63.072" transform="translate(0 60.692)"/><line class="n" y1="63.072" x2="84.493" transform="translate(265.338 60.692)"/><line class="n" x1="17.623" y1="45.221" transform="translate(111.298 60.692)"/><line class="n" y1="45.221" x2="17.623" transform="translate(220.91 60.692)"/></g><g transform="translate(169.874 209.308)"><path class="o" d="M533.138,350.209c0-43.739-39.219-78.946-86.693-76.785-42.111,1.917-76.567,34.256-78.331,73.486-.985,21.89,7.88,41.827,22.795,56.34,15.817,15.392,25.529,35.331,25.529,56.636v3.058h71.084v-6.339c0-20.353,9.031-39.477,23.837-54.448C524.875,388.49,533.138,370.262,533.138,350.209Z" transform="translate(-368.04 -273.33)"/><path class="o" d="M0,0H71.084a0,0,0,0,1,0,0V10.442A26.855,26.855,0,0,1,44.228,37.3H26.855A26.855,26.855,0,0,1,0,10.442V0A0,0,0,0,1,0,0Z" transform="translate(47.007 215.445)"/></g><g transform="translate(0 389.928)"><g transform="translate(0 56.5)"><path class="p" d="M441.993,641.94V598.233H421.134a101.189,101.189,0,0,0-14.342-33.953l14.946-14.946-30.9-30.906-15.317,15.316a101.128,101.128,0,0,0-33.583-13.4V498.173H298.226v22.942a101.2,101.2,0,0,0-32.261,13.951l-16.638-16.638-30.906,30.906,17.007,17.007a101.148,101.148,0,0,0-13.02,31.892H198.166V641.94h24.242a101.148,101.148,0,0,0,13.02,31.892L218.421,690.84l30.906,30.9,16.638-16.638a101.2,101.2,0,0,0,32.261,13.951V742h43.707V719.824a101.126,101.126,0,0,0,33.583-13.395l15.317,15.316,30.9-30.9-14.946-14.948a101.176,101.176,0,0,0,14.342-33.952Z" transform="translate(-198.166 -498.173)"/><circle class="q" cx="68.222" cy="68.222" r="68.222" transform="translate(25.433 121.914) rotate(-45)"/></g><g transform="translate(298.032)"><path class="p" d="M664.072,572.968l9.823-30.093-14.362-4.688a73.263,73.263,0,0,0-2.244-26.6l13.65-6.932-14.332-28.224-13.988,7.1a73.191,73.191,0,0,0-20.111-16.77l4.984-15.269L597.4,441.673l-5.156,15.8a73.3,73.3,0,0,0-25.348,2.354l-7.716-15.194-28.224,14.332,7.887,15.532a73.261,73.261,0,0,0-16.132,19.031l-16.69-5.448L496.2,518.168l16.69,5.449a73.247,73.247,0,0,0,1.8,24.883l-15.532,7.888,14.332,28.224,15.2-7.716a73.3,73.3,0,0,0,19.076,16.856L542.6,609.547l30.093,9.824,4.984-15.269a73.236,73.236,0,0,0,26.132-1.674l7.1,13.987,28.224-14.332-6.931-13.651A73.286,73.286,0,0,0,649.71,568.28Z" transform="translate(-496.198 -441.673)"/><circle class="q" cx="49.41" cy="49.41" r="49.41" transform="translate(23.903 114.631) rotate(-66.652)"/></g></g></g></g></svg>