<svg xmlns="http://www.w3.org/2000/svg" width="81.5" height="81.5" viewBox="0 0 81.5 81.5"><defs><style>.a{fill:#ecce93;}.b{fill:#efefef;}.c{fill:#e76e54;}.d{fill:#48c8ef;}.e{fill:#fff;}.f{fill:#77959e;}</style></defs><path class="a" d="M5.094,16H61.125a5.094,5.094,0,0,1,5.094,5.094V89.859a5.094,5.094,0,0,1-5.094,5.094H5.094A5.094,5.094,0,0,1,0,89.859V21.094A5.094,5.094,0,0,1,5.094,16Zm0,0" transform="translate(0 -13.453)"/><path class="b" d="M32,99.992V48H88.031v68.766H48.774Zm0,0" transform="translate(-26.906 -40.359)"/><path class="c" d="M48.774,374.625V391.4L32,374.625Zm0,0" transform="translate(-26.906 -314.992)"/><path class="c" d="M128,10.188V0h25.469V10.188a5.094,5.094,0,0,1-5.094,5.094H133.094A5.094,5.094,0,0,1,128,10.188Zm0,0" transform="translate(-107.625)"/><path class="d" d="M269.844,246.922A22.922,22.922,0,1,1,246.922,224,22.922,22.922,0,0,1,269.844,246.922Zm0,0" transform="translate(-188.344 -188.344)"/><path class="e" d="M305,339.336l-4.936-4.938a2.547,2.547,0,0,1,3.6-3.6l1.65,1.648,11.535-9.614a2.548,2.548,0,0,1,3.263,3.914Zm0,0" transform="translate(-251.671 -270.945)"/><g transform="translate(15.281 20.375)"><path class="f" d="M162.547,128h20.375a2.547,2.547,0,0,1,0,5.094H162.547a2.547,2.547,0,0,1,0-5.094Zm0,0" transform="translate(-149.813 -128)"/><path class="f" d="M96,128h5.094v5.094H96Zm0,0" transform="translate(-96 -128)"/><path class="f" d="M96,192h5.094v5.094H96Zm0,0" transform="translate(-96 -181.812)"/><path class="f" d="M96,256h5.094v5.094H96Zm0,0" transform="translate(-96 -235.625)"/><path class="f" d="M96,320h5.094v5.094H96Zm0,0" transform="translate(-96 -289.438)"/><path class="f" d="M162.547,192h15.281a2.547,2.547,0,0,1,0,5.094H162.547a2.547,2.547,0,0,1,0-5.094Zm0,0" transform="translate(-149.813 -181.812)"/><path class="f" d="M162.547,256h5.094a2.547,2.547,0,0,1,0,5.094h-5.094a2.547,2.547,0,0,1,0-5.094Zm0,0" transform="translate(-149.813 -235.625)"/></g></svg>