<svg xmlns="http://www.w3.org/2000/svg" width="185.989" height="187.015" viewBox="0 0 185.989 187.015"><defs><style>.a{fill:#c6c5ca;}.b{fill:#898890;}.c{fill:#ff9811;}.d{fill:#cc7400;}.e{fill:#ffd422;}.f{fill:#3d9ae2;}.g{fill:#ffc477;}.h{fill:#ffb655;}.i{fill:#57565c;}.j{fill:#1e81ce;}.k{fill:#ee8700;}</style></defs><g transform="translate(-3 -2.68)"><path class="a" d="M64.447,83.874a40.63,40.63,0,0,0-4.329-1.507L58.034,67.84H51.62V41.353A22.421,22.421,0,0,1,54.827,2.68V22.946l9.62,3.207,9.62-3.207V2.68a22.421,22.421,0,0,1,3.207,38.673V79.192L68.456,85.8a41.933,41.933,0,0,0-4.008-1.924Z" transform="translate(86.061 0)"/><path class="b" d="M48,15h6.413V59.894H48Z" transform="translate(99.302 27.187)"/><path class="c" d="M121.5,89.218a40.37,40.37,0,0,1-3.431,8.337l8.786,11.7-13.6,13.6-11.7-8.786a40.367,40.367,0,0,1-8.337,3.431l-2.084,14.526H71.894L69.81,117.5a40.368,40.368,0,0,1-8.337-3.431l-11.7,8.786-13.6-13.6,8.786-11.7a40.37,40.37,0,0,1-3.431-8.337L27,87.134V67.894L41.526,65.81a40.37,40.37,0,0,1,3.431-8.337l-8.786-11.7,13.6-13.6,7.055,5.291,4.65,3.5a41.927,41.927,0,0,1,4.008-1.924,40.632,40.632,0,0,1,4.329-1.507L71.894,23h19.24l2.084,14.526a40.632,40.632,0,0,1,4.329,1.507,41.931,41.931,0,0,1,4.008,1.924l8.818-6.606,2.886-2.181,13.6,13.6-8.786,11.7A40.368,40.368,0,0,1,121.5,65.81l14.526,2.084v19.24Z" transform="translate(52.961 44.84)"/><path class="d" d="M30,39h6.413v6.413H30Z" transform="translate(59.581 80.147)"/><path class="e" d="M77.687,37.644A25.654,25.654,0,0,0,64.86,32.192,26.494,26.494,0,0,0,61.654,32a25.654,25.654,0,0,0,0,51.307,26.42,26.42,0,0,0,6.413-.8,25.654,25.654,0,0,0,9.62-44.862Z" transform="translate(72.821 64.701)"/><path class="c" d="M57.827,39.034V57.5A25.654,25.654,0,0,0,45,52.053V23h6.413L53.5,37.526A40.632,40.632,0,0,1,57.827,39.034Z" transform="translate(92.682 44.84)"/><path class="f" d="M120.4,63.627a31.862,31.862,0,0,0-15.713-13.436L79.961,40.283,76.754,39A12.827,12.827,0,1,1,51.1,39L23.17,50.191A32.009,32.009,0,0,0,3,79.95v29.6H124.855V79.95A32.038,32.038,0,0,0,120.4,63.627Z" transform="translate(0 80.147)"/><path class="g" d="M43.654,36.16v9.107a12.827,12.827,0,0,1-25.654,0V36.16a31.887,31.887,0,0,0,25.654,0Z" transform="translate(33.101 73.88)"/><path class="h" d="M43.654,36.16v6.413a31.887,31.887,0,0,1-25.654,0V36.16a31.887,31.887,0,0,0,25.654,0Z" transform="translate(33.101 73.88)"/><path class="i" d="M76.134,46.14V48.48H72.927A12.827,12.827,0,0,1,62.666,43.35l-5.772-7.7L46.119,44.28a19.163,19.163,0,0,1-11.993,4.2H12V42.067a32.067,32.067,0,1,1,64.134,0Z" transform="translate(19.86 16.153)"/><path class="g" d="M72.927,30.827A12.827,12.827,0,0,1,62.666,25.7L56.894,18,46.119,26.626a19.163,19.163,0,0,1-11.993,4.2H12V46.86c0,.77.032,1.539.1,2.277A32.038,32.038,0,0,0,69.689,66.1a27.126,27.126,0,0,0,2.982-4.778,31.458,31.458,0,0,0,3.3-11.191V50.1c.032-.321.064-.641.064-.962.064-.738.1-1.507.1-2.277V30.827Z" transform="translate(19.86 33.807)"/><path class="j" d="M32,49h6.413V87.48H32Z" transform="translate(63.994 102.214)"/><path class="j" d="M10,49h6.413V87.48H10Z" transform="translate(15.447 102.214)"/><path class="c" d="M97.788,59.514H91.374v-9.62a38.48,38.48,0,0,0-76.961,0v9.62H8v-9.62a44.894,44.894,0,0,1,89.788,0Z" transform="translate(11.034 5.12)"/><path class="k" d="M57.274,49.447H22V43.034H57.274a3.207,3.207,0,0,0,3.207-3.207V27h6.413V39.827A9.62,9.62,0,0,1,57.274,49.447Z" transform="translate(41.927 53.667)"/><path class="k" d="M16,25h6.413v6.413H16Z" transform="translate(28.687 49.254)"/><path class="k" d="M26,25h6.413v6.413H26Z" transform="translate(50.754 49.254)"/><g transform="translate(131.268 77.46)"><path class="d" d="M43,26h6.413v6.413H43Z" transform="translate(-43 -26)"/><path class="d" d="M43,52h6.413v6.413H43Z" transform="translate(-43 31.374)"/><path class="d" d="M0,0H6.413V6.413H0Z" transform="translate(28.112 74.373) rotate(-45)"/><path class="d" d="M56,39h6.413v6.413H56Z" transform="translate(-14.313 2.687)"/><path class="d" d="M0,0H6.413V6.413H0Z" transform="translate(28.12 15.426) rotate(-45)"/></g><path class="k" d="M41.686,21H35.273a6.413,6.413,0,0,0-3.207.866V40.24c0,.77-.032,1.539-.1,2.277a3.656,3.656,0,0,0,.609.321,6.375,6.375,0,0,0,2.694.609h6.413a6.221,6.221,0,0,0,4.169-1.571A6.324,6.324,0,0,0,48.1,37.034v-9.62A6.433,6.433,0,0,0,41.686,21Z" transform="translate(63.928 40.427)"/><path class="k" d="M23.034,40.24c0,.77.032,1.539.1,2.277a6.093,6.093,0,0,1-3.3.93H13.413A6.433,6.433,0,0,1,7,37.034v-9.62A6.433,6.433,0,0,1,13.413,21h6.413a6.413,6.413,0,0,1,3.207.866Z" transform="translate(8.827 40.427)"/></g></svg>