<svg xmlns="http://www.w3.org/2000/svg" width="350" height="362.569" viewBox="0 0 350 362.569"><defs><style>.a{fill:#25b1fa;}.b{fill:#2590fa;}.c{fill:#fdc069;}.d{fill:#f15a57;}.e{fill:#f6fcff;}</style></defs><g transform="translate(-32.042 -23.999)"><path class="a" d="M359.368,446.028H71.814A7.814,7.814,0,0,1,64,438.214V296H357.805l9.377,12.5V438.214A7.814,7.814,0,0,1,359.368,446.028Z" transform="translate(-6.986 -59.46)"/><path class="b" d="M248,296h12.5V446.028H248Z" transform="translate(-47.209 -59.46)"/><g transform="translate(272.059 108.4)"><path class="c" d="M427.7,215.524l-32.483-18.754,6.251-10.827,29.581-26.231,10.827,6.251L433.949,204.7Z" transform="translate(-351.45 -138.068)"/><g transform="translate(0 0)"><path class="d" d="M0,0H37.507V87.516H0Z" transform="matrix(0.866, 0.5, -0.5, 0.866, 43.758, 58.699)"/><path class="d" d="M0,0H18.754V12.5H0Z" transform="matrix(0.5, -0.866, 0.866, 0.5, 82.721, 16.241)"/></g></g><g transform="translate(132.017 49.016)"><path class="c" d="M310.025,131.017a75.014,75.014,0,1,0-110.311,66.208l10.292,46.313h50.009l10.292-46.313a75,75,0,0,0,39.718-66.208Z" transform="translate(-159.987 -56.015)"/><path class="d" d="M221.668,285.507h50.009L280.013,248h-66.68Z" transform="translate(-171.648 -97.983)"/><path class="e" d="M262.512,128a6.251,6.251,0,0,0-4.421,1.831l-14.333,14.334-14.333-14.334A6.251,6.251,0,0,0,225,128H200v12.5h22.415l15.092,15.092v66.173h12.5V155.594L265.1,140.5h22.415V128Z" transform="translate(-168.734 -71.751)"/></g><path class="c" d="M297.414,346.009H423.186a7.814,7.814,0,0,0,6.626-11.955L406.028,296H256l35.163,46.884A7.815,7.815,0,0,0,297.414,346.009Z" transform="translate(-48.958 -59.46)"/><g transform="translate(44.512 118.019)"><path class="c" d="M110.063,203.039,77.581,221.792,48,195.561l2.9-44.984,10.827-6.251,40.408,19.98Z" transform="translate(-48 -144.323)"/><path class="d" d="M0,0H37.507V68.763H0Z" transform="matrix(0.866, -0.5, 0.5, 0.866, 29.579, 77.465)"/><path class="e" d="M0,0H12.5V37.507H0Z" transform="matrix(0.866, -0.5, 0.5, 0.866, 2.9, 6.251)"/></g><path class="c" d="M165.628,346.009H39.856a7.814,7.814,0,0,1-6.626-11.955L57.014,296H207.042l-35.163,46.884A7.814,7.814,0,0,1,165.628,346.009Z" transform="translate(0 -59.46)"/><g transform="translate(60.988 25.387)"><path class="a" d="M0,0H37.507V37.507H0Z" transform="matrix(-0.866, -0.5, 0.5, -0.866, 39.786, 78.495)"/><path class="c" d="M0,0H37.507V37.507H0Z" transform="matrix(-0.866, -0.5, 0.5, -0.866, 32.481, 51.235)"/></g><path class="a" d="M441.92,53.638a6.251,6.251,0,0,0-2.912-3.8l-43.31-25a6.251,6.251,0,0,0-8.539,2.288l-9.377,16.241,10.827,6.251L394.86,38.79l10.828,6.251-21.879,37.9L378.4,79.813,372.144,90.64l21.654,12.5,6.251-10.826-5.413-3.126,21.879-37.9,10.828,6.251-6.251,10.827,10.827,6.251L441.3,58.381A6.252,6.252,0,0,0,441.92,53.638Z" transform="translate(-74.348 0)"/></g></svg>