<svg xmlns="http://www.w3.org/2000/svg" width="100" height="98.189" viewBox="0 0 100 98.189"><defs><style>.a{fill:#a2c7f8;}.b{fill:#8db3df;}.c{fill:#d8ecfe;}.d{fill:#c4e2ff;}.e{fill:#647fa0;}.f{fill:#5e6f90;}.g{fill:#fed2a4;}.h{fill:#fe9901;}.i{fill:#fb8801;}.j{fill:#ffbd86;}.k{fill:#fe646f;}.l{fill:#fd4755;}.m{fill:#fff;}.n{fill:#eaf6ff;}.o{fill:#0593fc;}.p{fill:#799fca;}.q{fill:#b3dafe;}</style></defs><g transform="translate(0 -4.636)"><g transform="translate(0 4.635)"><g transform="translate(39.925 75.753)"><path class="a" d="M211.336,407.9h20.15v16.279h-20.15Z" transform="translate(-211.336 -407.902)"/></g><g transform="translate(40.846 75.753)"><path class="b" d="M211.336,407.9h7.286v16.279h-7.286Z" transform="translate(-211.336 -407.902)"/></g><g transform="translate(27.459 91.8)"><path class="c" d="M198.829,485.429H158.4a2.324,2.324,0,0,1-2.324-2.324v-1.741a2.324,2.324,0,0,1,2.324-2.324h40.434a2.324,2.324,0,0,1,2.324,2.324v1.741A2.324,2.324,0,0,1,198.829,485.429Z" transform="translate(-156.072 -479.04)"/></g><g transform="translate(29.834 91.8)"><path class="d" d="M167.691,483.105v-1.741a2.324,2.324,0,0,1,2.324-2.324H158.4a2.324,2.324,0,0,0-2.324,2.324v1.741a2.324,2.324,0,0,0,2.324,2.324h11.619A2.324,2.324,0,0,1,167.691,483.105Z" transform="translate(-156.072 -479.04)"/></g><g transform="translate(0 67.753)"><path class="c" d="M0,364.633c0,2.567,1.8,4.648,4.024,4.648H95.976c2.222,0,4.024-2.081,4.024-4.648v-6.9H0Z" transform="translate(0 -357.732)"/></g><g transform="translate(0 67.753)"><path class="d" d="M11.735,364.633v-6.9H0v6.9a4.648,4.648,0,0,0,4.648,4.648H16.383A4.648,4.648,0,0,1,11.735,364.633Z" transform="translate(0 -357.732)"/></g><g transform="translate(44.125 72.032)"><path class="a" d="M240.014,378.589h-8.365a1.692,1.692,0,1,1,0-3.384h8.365a1.692,1.692,0,1,1,0,3.384Z" transform="translate(-229.957 -375.206)"/></g><g transform="translate(0 10.686)"><path class="e" d="M100,120.972H0V55.5a3.277,3.277,0,0,1,3.018-3.486H96.982A3.277,3.277,0,0,1,100,55.5v65.475Z" transform="translate(0 -52.011)"/></g><path class="f" d="M7.305,114.829a1.162,1.162,0,0,1-1.162-1.162V59.316a1.162,1.162,0,0,1,1.162-1.162h4.43V55.5a3.486,3.486,0,0,1,3.486-3.486H3.486A3.486,3.486,0,0,0,0,55.5v65.475H11.735v-6.143Z" transform="translate(0 -41.325)"/><path class="g" d="M113.96,79.245H28.221a1.085,1.085,0,0,0-.988,1.162v54.351a1.085,1.085,0,0,0,.988,1.162H51.906l.332-.226,3.8-7.749h5.7a1.087,1.087,0,0,0,.987-1.162V114.311L69,101.533a.871.871,0,0,1,1.619,0l13.947,28.423.073-.014.072.016,11.174-22.773a.871.871,0,0,1,1.619,0l13.989,28.509.332.226h2.134a1.085,1.085,0,0,0,.988-1.162V80.407a1.085,1.085,0,0,0-.988-1.162Z" transform="translate(-21.091 -64.015)"/><g transform="translate(72.1 21.921)"><circle class="h" cx="6.042" cy="6.042" r="6.042"/></g><g transform="translate(74.242 21.921)"><path class="i" d="M389.42,125.028a6.043,6.043,0,0,1,3.718-5.578,6.042,6.042,0,1,0,0,11.156A6.044,6.044,0,0,1,389.42,125.028Z" transform="translate(-384.772 -118.986)"/></g><path class="j" d="M36.979,134.758v-6.812H35.615a1.162,1.162,0,0,1-1.162-1.162V88.674a2.324,2.324,0,0,1,2.324-2.324h.2V80.407a1.162,1.162,0,0,1,1.162-1.162H28.4a1.162,1.162,0,0,0-1.162,1.162v54.351A1.162,1.162,0,0,0,28.4,135.92h9.745A1.162,1.162,0,0,1,36.979,134.758Z" transform="translate(-21.091 -64.015)"/></g><g transform="translate(13.362 23.5)"><g transform="translate(0 0)"><path class="k" d="M91.458,110.744h-29.9a2.324,2.324,0,0,0-2.324,2.324v7.91l.555.232H93.185l.6-.232v-7.91A2.323,2.323,0,0,0,91.458,110.744Z" transform="translate(-59.235 -110.744)"/></g><path class="l" d="M66.516,113.068a2.324,2.324,0,0,1,2.324-2.324H61.559a2.324,2.324,0,0,0-2.324,2.324v7.91l.555.232h7.281l-.555-.232Z" transform="translate(-59.235 -110.744)"/><g transform="translate(0 10.233)"><path class="m" d="M92.62,187.473H60.4a1.162,1.162,0,0,1-1.162-1.162v-30.2H93.782v30.2A1.162,1.162,0,0,1,92.62,187.473Z" transform="translate(-59.235 -156.111)"/></g><g transform="translate(0 10.233)"><path class="n" d="M66.516,186.311v-30.2H59.235v30.2a1.162,1.162,0,0,0,1.162,1.162h7.281A1.162,1.162,0,0,1,66.516,186.311Z" transform="translate(-59.235 -156.111)"/></g><g transform="translate(4.118 17.197)"><g transform="translate(0 11.91)"><path class="b" d="M102.11,243.165H79.182a1.692,1.692,0,1,1,0-3.384H102.11a1.692,1.692,0,1,1,0,3.384Z" transform="translate(-77.49 -239.782)"/></g><g transform="translate(14.155 9.992)"><circle class="o" cx="3.609" cy="3.609" r="3.609"/></g><g transform="translate(0 1.917)"><path class="b" d="M102.11,198.868H79.182a1.692,1.692,0,0,1,0-3.384H102.11a1.692,1.692,0,1,1,0,3.384Z" transform="translate(-77.49 -195.484)"/></g><g transform="translate(4.86)"><circle class="o" cx="3.609" cy="3.609" r="3.609"/></g></g><g transform="translate(27.253 3.081)"><circle class="j" cx="1.692" cy="1.692" r="1.692"/></g><g transform="translate(22.592 3.081)"><circle class="j" cx="1.692" cy="1.692" r="1.692"/></g><g transform="translate(17.93 3.081)"><circle class="j" cx="1.692" cy="1.692" r="1.692"/></g></g><g transform="translate(52.601 4.636)"><g transform="translate(4.376 0)"><path class="p" d="M448.618,6.83l-1.609-1.609a2,2,0,0,0-2.824,0l-4.873,4.873,3.021,3.021Z" transform="translate(-412.685 -4.637)"/><path class="p" d="M328.13,67.273l19.1-19.1-3.021-3.021L321.267,68.094l.027.31,6.315,6.315.3.015,3.021-3.021-2.8-2.8A1.162,1.162,0,0,1,328.13,67.273Z" transform="translate(-321.267 -36.009)"/></g><g transform="translate(0 5.468)"><g transform="translate(0 26.617)"><path class="e" d="M306.243,146.877a2,2,0,0,0-.437.657l-3.893,9.531a.6.6,0,0,0,.781.781l9.53-3.893a2,2,0,0,0,.657-.437Z" transform="translate(-301.867 -146.877)"/></g><g transform="translate(27.312 0)"><path class="d" d="M0,0H5.2V9.39H0Z" transform="translate(0 3.68) rotate(-45)"/></g><g transform="translate(27.312 0)"><path class="q" d="M0,0H5.2V4.272H0Z" transform="translate(0 3.68) rotate(-45)"/></g></g></g></g></svg>