<svg xmlns="http://www.w3.org/2000/svg" width="101" height="101" viewBox="0 0 101 101"><defs><style>.a{fill:#24b3b3;}.b{fill:#2ee6a8;}.c{fill:#283366;}.d{fill:#404a80;}.e{fill:#101040;}.f{fill:#cfcfe6;}.g{fill:#ece6f2;}</style></defs><path class="a" d="M296.611,80.534A50.508,50.508,0,0,0,256,0V5.918a44.592,44.592,0,0,1,35.953,70.956l-.678-7.754-5.9.516,1.547,17.686,17.686-1.547-.516-5.9Z" transform="translate(-205.5 0)"/><path class="b" d="M5.918,106.16a44.249,44.249,0,0,1,8.629-26.374l.678,7.754,5.9-.516L19.573,69.338,1.887,70.885l.516,5.9,7.487-.655A50.508,50.508,0,0,0,50.5,156.66v-5.918A44.582,44.582,0,0,1,5.918,106.16Z" transform="translate(0 -55.66)"/><path class="c" d="M263.814,134.787a23.9,23.9,0,0,0-.428-4.505l5.8-1.885-1.829-5.628-5.806,1.887a23.992,23.992,0,0,0-5.3-7.28l3.594-4.947-4.788-3.479-3.59,4.941A23.688,23.688,0,0,0,242.9,111.1V105h-2.959L236,134.787l3.945,29.787H242.9v-6.1a23.691,23.691,0,0,0,8.566-2.789l3.59,4.941,4.788-3.479-3.594-4.947a23.987,23.987,0,0,0,5.3-7.28l5.806,1.887,1.829-5.628-5.8-1.885A23.9,23.9,0,0,0,263.814,134.787Z" transform="translate(-189.445 -84.287)"/><path class="d" d="M134.04,105v6.1a23.692,23.692,0,0,0-8.566,2.789l-3.59-4.941-4.788,3.479,3.594,4.947a23.986,23.986,0,0,0-5.3,7.28l-5.806-1.887-1.829,5.628,5.8,1.885a23.91,23.91,0,0,0,0,9.01l-5.8,1.885,1.829,5.628,5.806-1.887a23.991,23.991,0,0,0,5.3,7.28l-3.594,4.947,4.788,3.479,3.59-4.941a23.688,23.688,0,0,0,8.566,2.789v6.1H137V105Z" transform="translate(-86.499 -84.287)"/><path class="e" d="M239.945,165,236,182.951l3.945,17.951a17.951,17.951,0,0,0,0-35.9Z" transform="translate(-189.445 -132.451)"/><path class="c" d="M165,182.951A17.971,17.971,0,0,0,182.951,200.9V165A17.971,17.971,0,0,0,165,182.951Z" transform="translate(-132.451 -132.451)"/><path class="f" d="M239.945,210,236,219.074l3.945,9.074a9.074,9.074,0,0,0,0-18.148Z" transform="translate(-189.445 -168.574)"/><path class="g" d="M210,219.074a9.074,9.074,0,0,0,9.074,9.074V210A9.074,9.074,0,0,0,210,219.074Z" transform="translate(-168.574 -168.574)"/></svg>