<svg xmlns="http://www.w3.org/2000/svg" width="57.772" height="56" viewBox="0 0 57.772 56"><defs><style>.a{fill:#e9eef2;}.b{fill:#e0b999;}.c{fill:#f0c6a4;}.d{fill:#ad6643;}.e{fill:#dadcde;}.f{fill:#d13330;}.g{fill:#eb423f;}.h{fill:#ffe76c;}.i{fill:#f2c837;}</style></defs><g transform="translate(-16 -22.72)"><path class="a" d="M58.366,288.157V300.22H16V288.157a3.851,3.851,0,0,1,2.129-3.445L27.554,280H46.812l9.425,4.713a3.851,3.851,0,0,1,2.129,3.445Z" transform="translate(0 -226.314)"/><path class="b" d="M152,208h9.629v10.591H152Z" transform="translate(-119.631 -162.98)"/><path class="c" d="M120,64h17.331V75.554a7.7,7.7,0,0,1-7.7,7.7H127.7a7.7,7.7,0,0,1-7.7-7.7Z" transform="translate(-91.483 -36.312)"/><path class="d" d="M117.387,29.614a10.667,10.667,0,0,0,8.666,4.814c5.777,0,7.7-7.7,7.7-7.7s-2.889.963-5.777-1.926a7.543,7.543,0,0,0-6.74-1.926,5.964,5.964,0,0,0-3.851,1.926c-.963-.963-8.522-1.445-4.814,8.666Z" transform="translate(-84.056)"/><path class="e" d="M72,398.74v-5.777a.963.963,0,0,1,1.926,0v5.777Z" transform="translate(-49.26 -324.834)"/><path class="e" d="M296,398.74v-5.777a.963.963,0,0,1,1.926,0v5.777Z" transform="translate(-246.3 -324.834)"/><path class="f" d="M160,297.926l1.926,3.851h3.851l1.926-3.851L163.851,296Z" transform="translate(-126.669 -240.389)"/><path class="e" d="M116.814,256l4.814,4.814-5.777,4.814L112,258.889Z" transform="translate(-84.446 -205.203)"/><path class="e" d="M196.814,256,192,260.814l5.777,4.814,3.851-6.74Z" transform="translate(-154.817 -205.203)"/><path class="g" d="M167.7,346.889v9.629H160v-9.629L161.926,344h3.851Z" transform="translate(-126.669 -282.612)"/><path class="f" d="M330.591,364.814,327.7,375.406l-2.889-2.889L320,373.48,324.814,360Z" transform="translate(-267.411 -296.686)"/><path class="f" d="M408,364.814l2.889,10.591,2.889-2.889,4.814.963L413.777,360Z" transform="translate(-344.82 -296.686)"/><circle class="g" cx="10.591" cy="10.591" r="10.591" transform="translate(52.589 46.946)"/><circle class="h" cx="6.74" cy="6.74" r="6.74" transform="translate(56.44 50.797)"/><path class="i" d="M388.814,285.777h-.963v-4.814a.963.963,0,0,0-.963-.963h-.963a.963.963,0,0,0-.681.282l-.963.963a.963.963,0,0,0,1.362,1.362l.282-.282v3.453h-.963a.963.963,0,1,0,0,1.926h3.851a.963.963,0,0,0,0-1.926Z" transform="translate(-323.708 -226.314)"/></g></svg>