<svg xmlns="http://www.w3.org/2000/svg" width="69.667" height="69.666" viewBox="0 0 69.667 69.666"><defs><style>.a{fill:#efce4a;}.b{fill:#ebba16;}.c{fill:#f4efdc;}.d{fill:#cec9ae;}.e{fill:#d1bf86;}</style></defs><g transform="translate(0)"><path class="a" d="M55.642,64.236H1.88a1.879,1.879,0,0,1-1.814-2.37L12.277,28.389A1.878,1.878,0,0,1,14.091,27H67.853c1.237,0,1.814,1.182,1.814,2.37L57.456,62.847A1.878,1.878,0,0,1,55.642,64.236Z" transform="translate(0 5.431)"/><path class="b" d="M50.724,18H48V28.81h4.8V20.08A2.08,2.08,0,0,0,50.724,18Z" transform="translate(9.655 3.621)"/><path class="b" d="M4.8,11H2.08A2.08,2.08,0,0,0,0,13.08V64.4c.083,0,.166.007.246.012L4.8,51.986Z" transform="translate(0 2.213)"/><path class="c" d="M10.265,33.819a1.878,1.878,0,0,1,1.814-1.389H55.644V0H10V34.546Z" transform="translate(2.011)"/><g transform="translate(19.218 8.408)"><path class="d" d="M17.2,16.4H46.029a1.2,1.2,0,0,0,0-2.4H17.2a1.2,1.2,0,0,0,0,2.4Z" transform="translate(-16 -5.592)"/><path class="d" d="M17.2,9.4H29.213a1.2,1.2,0,0,0,0-2.4H17.2a1.2,1.2,0,0,0,0,2.4Z" transform="translate(-16 -7)"/><path class="d" d="M46.029,21H17.2a1.2,1.2,0,0,0,0,2.4H46.029a1.2,1.2,0,0,0,0-2.4Z" transform="translate(-16 -4.184)"/></g><path class="d" d="M10.6,34.144V2H7V44.023Z" transform="translate(1.408 0.402)"/><path class="e" d="M7.6,43.621V4H4V53.5Z" transform="translate(0.805 0.805)"/></g></svg>