<svg xmlns="http://www.w3.org/2000/svg" width="1452.893" height="690.92" viewBox="0 0 1452.893 690.92"><defs><style>.a{fill:#074a90;}.b{fill:#bdd0fb;}.c{fill:#036a18;}.d{fill:#08841c;}.e{fill:#663006;}.f{fill:#ff8000;}.g{fill:#dd6900;}.h{fill:#a6bfed;}.i{fill:#dbe7fc;}.j{fill:#f5f9fc;}.k{fill:#c60001;}.l{fill:#ff000d;}.m{fill:#ff7683;}.n{fill:#585bea;}.o{fill:#4850d8;}.p{fill:#f9b5a0;}.q{fill:#3d2923;}.r{fill:#fff;}.s{fill:#1d1b3a;}.t{fill:#d16300;}.u{fill:#f7b2a0;}.v{fill:#fbc6b4;}.w{fill:#e6e4f7;}.x{fill:#bfbeed;}.y{fill:#d2cdf9;}.z{fill:#f2f2fc;}.aa{fill:#d34f8b;}.ab{fill:#e5649a;}.ac{fill:#ff95a9;}.ad{fill:#ef849d;}.ae{fill:#aa60ff;}.af{fill:#8a43ef;}.ag{fill:#7371cc;}.ah{fill:#b4a4f5;}.ai{fill:#f4d242;}.aj{fill:#59595b;}.ak{fill:#808183;}.al{fill:#f7bdad;}.am{fill:#020202;}.an{fill:#e13c22;}</style></defs><g transform="translate(141.473 -152.589)"><path class="a" d="M800.52,789.323c0,15.8-13.8,28.6-30.794,28.6H67.152c-17.005,0-30.818-12.8-30.818-28.6V376.445c0-15.828,13.813-28.627,30.818-28.627H769.726c17,0,30.794,12.8,30.794,28.627Z"/><rect class="b" width="687.909" height="394.835" transform="translate(73.432 399.124)"/><rect class="a" width="918.041" height="47.986" transform="translate(-41.799 793.959)"/><path class="c" d="M-43.708,795.129l-2.917-.1C-38.854,652.091-86.169,615.5-86.672,615.153l1.985-1.82C-82.678,614.814-35.84,651.066-43.708,795.129Z"/><path class="c" d="M-107.9,621.128s11.025,13.956,31.255,5.109C-76.645,626.237-88.491,612.333-107.9,621.128Z"/><path class="c" d="M-97.163,638.476s11.026,13.957,31.256,5.11C-65.907,643.586-77.753,629.682-97.163,638.476Z"/><path class="c" d="M-83.806,677.514s11.026,13.956,31.256,5.109C-52.55,682.623-64.4,668.719-83.806,677.514Z"/><path class="c" d="M-78.73,694.074s8.639,15.047,30.134,8.512C-48.6,702.586-58.057,687.5-78.73,694.074Z"/><path class="c" d="M-74.889,711.965s8.64,15.046,30.135,8.512C-44.754,720.477-54.215,705.392-74.889,711.965Z"/><path class="c" d="M-73.51,728.922s8.64,15.046,30.135,8.512C-43.375,737.434-52.836,722.349-73.51,728.922Z"/><path class="c" d="M-73.51,744.8s8.64,15.046,30.135,8.512C-43.375,753.317-52.836,738.232-73.51,744.8Z"/><path class="c" d="M-87.988,657.583s11.026,13.956,31.256,5.109C-56.732,662.692-68.578,648.788-87.988,657.583Z"/><path class="c" d="M-68.031,599.321s-17.169,8.837-6.7,25.575C-74.73,624.9-57.613,615.385-68.031,599.321Z"/><path class="c" d="M-52.519,618.859s-18.743,6.324-11.876,24.275C-64.395,643.134-45.564,636.138-52.519,618.859Z"/><path class="c" d="M-40.907,640.512s-19.7,3.9-16.26,22.5C-57.167,663.01-37.254,658.461-40.907,640.512Z"/><path class="c" d="M-34.71,663.349s-19.7,3.9-16.261,22.5C-50.971,685.847-31.057,681.3-34.71,663.349Z"/><path class="c" d="M-27.01,684.43s-20.257-.474-22.87,18.219C-49.88,702.649-29.21,702.538-27.01,684.43Z"/><path class="c" d="M-22.972,701.2s-20.256-.474-22.869,18.219C-45.841,719.416-25.171,719.306-22.972,701.2Z"/><path class="c" d="M-21.289,718.473S-41.545,718-44.158,736.692C-44.158,736.692-23.489,736.582-21.289,718.473Z"/><path class="c" d="M-22.828,736.971S-43.084,736.5-45.7,755.19C-45.7,755.19-25.028,755.08-22.828,736.971Z"/><path class="c" d="M-102.749,594.466s-3.738,16.349,18.346,21.39C-84.4,615.856-81.3,599.081-102.749,594.466Z"/><path class="c" d="M-34.811,773.137l2.057.061C-28.926,672.354,6.719,648.7,7.1,648.478l-1.277-1.367C4.31,648.064-30.978,671.5-34.811,773.137Z"/><path class="c" d="M21.633,653.608s-8.659,9.33-22.308,2.223C-.675,655.831,8.558,646.574,21.633,653.608Z"/><path class="c" d="M12.956,665.336s-8.659,9.33-22.308,2.223C-9.352,667.559-.119,658.3,12.956,665.336Z"/><path class="c" d="M1.027,692.2s-8.659,9.33-22.308,2.223C-21.281,694.421-12.048,685.164,1.027,692.2Z"/><path class="c" d="M-3.618,703.619s-7.052,10.2-21.741,4.665C-25.359,708.284-17.726,698.092-3.618,703.619Z"/><path class="c" d="M-7.482,716.03s-7.052,10.2-21.741,4.665C-29.223,720.7-21.591,710.5-7.482,716.03Z"/><path class="c" d="M-9.554,727.892s-7.052,10.2-21.741,4.665C-31.3,732.557-23.663,722.365-9.554,727.892Z"/><path class="c" d="M-10.586,739.059s-7.053,10.2-21.742,4.665C-32.328,743.724-24.695,733.532-10.586,739.059Z"/><path class="c" d="M5.263,678.367s-8.659,9.33-22.308,2.224C-17.045,680.591-7.812,671.334,5.263,678.367Z"/><path class="c" d="M-4.981,636.53s11.5,6.965,3.047,18.275C-1.934,654.8-13.35,647.368-4.981,636.53Z"/><path class="c" d="M-17.158,649.587s12.767,5.268,6.772,17.588C-10.386,667.175-23.171,661.432-17.158,649.587Z"/><path class="c" d="M-26.73,664.3s13.6,3.6,9.97,16.53C-16.76,680.833-30.465,676.763-26.73,664.3Z"/><path class="c" d="M-32.571,680.089s13.6,3.6,9.97,16.53C-22.6,696.619-36.307,692.549-32.571,680.089Z"/><path class="c" d="M-39.355,694.573s14.273.554,14.9,13.811C-24.46,708.384-38.986,707.4-39.355,694.573Z"/><path class="c" d="M-43.285,706.185s14.273.554,14.9,13.811C-28.39,720-42.916,719.014-43.285,706.185Z"/><path class="c" d="M-45.591,718.258s14.273.554,14.9,13.811C-30.7,732.069-45.222,731.087-45.591,718.258Z"/><path class="c" d="M-45.712,731.332s14.273.554,14.9,13.811C-30.816,745.143-45.342,744.16-45.712,731.332Z"/><path class="c" d="M19.745,634.637s1.565,11.658-14.29,14.235C5.455,648.872,4.366,636.942,19.745,634.637Z"/><path class="c" d="M-53.452,782.674l-2,.406c-28.959-98.052-69.759-115.2-70.183-115.353l.908-1.553C-123.01,666.853-82.613,683.847-53.452,782.674Z"/><path class="c" d="M-138.578,675.2s10.807,7.673,22.389-1.582C-116.189,673.615-127.54,666.11-138.578,675.2Z"/><path class="c" d="M-127.154,685.213s10.808,7.673,22.389-1.581C-104.765,683.632-116.115,676.127-127.154,685.213Z"/><path class="c" d="M-108.763,709.495s10.808,7.672,22.389-1.582C-86.374,707.913-97.724,700.408-108.763,709.495Z"/><path class="c" d="M-101.361,719.89s9.452,8.8,22.444.9A19.1,19.1,0,0,0-101.361,719.89Z"/><path class="c" d="M-94.477,731.386s9.453,8.8,22.445.9A19.1,19.1,0,0,0-94.477,731.386Z"/><path class="c" d="M-89.483,742.647s9.453,8.8,22.445.9A19.1,19.1,0,0,0-89.483,742.647Z"/><path class="c" d="M-85.681,753.4s9.453,8.8,22.445.9A19.1,19.1,0,0,0-85.681,753.4Z"/><path class="c" d="M-116.366,696.672s10.807,7.672,22.389-1.582C-93.977,695.09-105.328,687.585-116.366,696.672Z"/><path class="c" d="M-116.8,654s-9.511,8.754,1.586,18.4C-115.214,672.4-105.9,663.2-116.8,654Z"/><path class="c" d="M-101.618,664.727s-11.179,7.306-2.231,18.355C-103.849,683.082-92.771,675.307-101.618,664.727Z"/><path class="c" d="M-88.571,677.518s-12.408,5.815-5.625,17.858C-94.2,695.376-81.8,689.083-88.571,677.518Z"/><path class="c" d="M-78.907,691.983s-12.408,5.816-5.625,17.858C-84.532,709.841-72.136,703.549-78.907,691.983Z"/><path class="c" d="M-68.646,705.017s-13.831,2.946-11.125,16.026C-79.771,721.043-65.8,717.634-68.646,705.017Z"/><path class="c" d="M-61.9,715.72s-13.831,2.946-11.125,16.026C-73.022,731.746-59.051,728.338-61.9,715.72Z"/><path class="c" d="M-56.621,727.148s-13.831,2.946-11.126,16.026C-67.747,743.174-53.776,739.765-56.621,727.148Z"/><path class="c" d="M-53.235,739.923s-13.831,2.946-11.125,16.026C-64.36,755.949-50.389,752.54-53.235,739.923Z"/><path class="c" d="M-141.473,656.311s1.383,11.674,17.545,11.526C-123.928,667.837-125.845,655.977-141.473,656.311Z"/><path class="d" d="M-71.956,773.234l-1.357.276c-19.677-66.622-47.4-78.273-47.686-78.377l.617-1.056C-119.217,694.539-91.77,706.086-71.956,773.234Z"/><path class="d" d="M-129.795,700.208a12.76,12.76,0,0,0,15.212-1.075S-122.295,694.034-129.795,700.208Z"/><path class="d" d="M-122.033,707.014a12.76,12.76,0,0,0,15.212-1.075S-114.533,700.84-122.033,707.014Z"/><path class="d" d="M-109.537,723.512a12.76,12.76,0,0,0,15.212-1.075S-102.037,717.338-109.537,723.512Z"/><path class="d" d="M-104.508,730.575s6.423,5.976,15.25.614A12.975,12.975,0,0,0-104.508,730.575Z"/><path class="d" d="M-99.83,738.386s6.422,5.976,15.25.614A12.975,12.975,0,0,0-99.83,738.386Z"/><path class="d" d="M-96.437,746.037s6.422,5.976,15.25.614A12.975,12.975,0,0,0-96.437,746.037Z"/><path class="d" d="M-93.854,753.345s6.423,5.976,15.25.614A12.975,12.975,0,0,0-93.854,753.345Z"/><path class="d" d="M-114.7,714.8a12.761,12.761,0,0,0,15.212-1.074S-107.2,708.625-114.7,714.8Z"/><path class="d" d="M-115,685.8s-6.462,5.948,1.078,12.5C-113.92,698.307-107.591,692.055-115,685.8Z"/><path class="d" d="M-104.683,693.095s-7.6,4.964-1.515,12.47C-106.2,705.565-98.672,700.283-104.683,693.095Z"/><path class="d" d="M-95.817,701.785s-8.431,3.952-3.823,12.134C-99.64,713.919-91.217,709.643-95.817,701.785Z"/><path class="d" d="M-89.251,711.614s-8.431,3.951-3.822,12.133C-93.073,723.747-84.651,719.472-89.251,711.614Z"/><path class="d" d="M-82.28,720.469s-9.4,2-7.559,10.889C-89.839,731.358-80.346,729.042-82.28,720.469Z"/><path class="d" d="M-77.694,727.742s-9.4,2-7.559,10.889C-85.253,738.631-75.76,736.315-77.694,727.742Z"/><path class="d" d="M-74.109,735.506s-9.4,2-7.56,10.889C-81.669,746.4-72.176,744.079-74.109,735.506Z"/><path class="d" d="M-71.809,744.186s-9.4,2-7.559,10.889C-79.368,755.075-69.875,752.759-71.809,744.186Z"/><path class="d" d="M-131.762,687.376s.94,7.932,11.921,7.831C-119.841,695.207-121.144,687.149-131.762,687.376Z"/><path class="d" d="M-23.447,801.389l2.057.06c3.829-100.843,39.474-124.5,39.85-124.72l-1.277-1.366C15.675,676.316-19.614,699.753-23.447,801.389Z"/><path class="d" d="M33,681.86s-8.659,9.33-22.308,2.223C10.69,684.083,19.923,674.826,33,681.86Z"/><path class="d" d="M24.321,693.588s-8.66,9.329-22.308,2.223C2.013,695.811,11.245,686.554,24.321,693.588Z"/><path class="d" d="M12.392,720.45s-8.66,9.33-22.308,2.223C-9.916,722.673-.684,713.416,12.392,720.45Z"/><path class="d" d="M7.747,731.871s-7.053,10.2-21.741,4.665C-13.994,736.536-6.362,726.344,7.747,731.871Z"/><path class="d" d="M3.883,744.282s-7.053,10.2-21.741,4.664C-17.858,748.946-10.226,738.755,3.883,744.282Z"/><path class="d" d="M1.811,756.144s-7.053,10.2-21.741,4.665C-19.93,760.809-12.3,750.617,1.811,756.144Z"/><path class="d" d="M.778,767.311s-7.052,10.2-21.741,4.665C-20.963,771.976-13.33,761.784.778,767.311Z"/><path class="d" d="M16.628,706.619s-8.66,9.33-22.308,2.224C-5.68,708.843,3.552,699.586,16.628,706.619Z"/><path class="d" d="M6.384,664.782s11.5,6.965,3.047,18.275C9.431,683.057-1.986,675.62,6.384,664.782Z"/><path class="d" d="M-5.793,677.839S6.974,683.106.979,695.427C.979,695.427-11.807,689.684-5.793,677.839Z"/><path class="d" d="M-15.365,692.555s13.6,3.6,9.97,16.53C-5.395,709.085-19.1,705.015-15.365,692.555Z"/><path class="d" d="M-21.207,708.34s13.6,3.6,9.97,16.531C-11.237,724.871-24.942,720.8-21.207,708.34Z"/><path class="d" d="M-27.991,722.825s14.273.554,14.895,13.811C-13.1,736.636-27.621,735.653-27.991,722.825Z"/><path class="d" d="M-31.92,734.437s14.273.554,14.9,13.811C-17.025,748.248-31.551,747.266-31.92,734.437Z"/><path class="d" d="M-34.226,746.51s14.273.554,14.9,13.811C-19.331,760.321-33.857,759.339-34.226,746.51Z"/><path class="d" d="M-34.347,759.584s14.273.554,14.9,13.811C-19.452,773.4-33.977,772.412-34.347,759.584Z"/><path class="d" d="M31.109,662.889s1.565,11.658-14.29,14.235C16.819,677.124,15.731,665.194,31.109,662.889Z"/><path class="e" d="M-21.234,765.319c0,5.1,5.523,9.219,12.311,9.219,6.815,0,12.338-4.123,12.338-9.219S-2.108,756.1-8.923,756.1C-15.711,756.1-21.234,760.214-21.234,765.319Z"/><path class="e" d="M-57.264,769.4c0,10.044,10.875,18.208,24.314,18.208,13.458,0,24.361-8.164,24.361-18.208,0-10.071-10.9-18.213-24.361-18.213C-46.389,751.186-57.264,759.328-57.264,769.4Z"/><path class="e" d="M-69.768,765.393c0,4.948,5.357,8.911,11.954,8.911,6.574,0,11.907-3.963,11.907-8.911,0-4.927-5.333-8.911-11.907-8.911C-64.411,756.482-69.768,760.466-69.768,765.393Z"/><path class="e" d="M-78.949,763.707c0,3.806,4.136,6.887,9.181,6.887,5.068,0,9.2-3.081,9.2-6.887,0-3.767-4.136-6.847-9.2-6.847C-74.813,756.86-78.949,759.94-78.949,763.707Z"/><path class="e" d="M-92,765.806c0,4.357,4.733,7.907,10.544,7.907,5.857,0,10.589-3.55,10.589-7.907,0-4.375-4.732-7.908-10.589-7.908C-87.269,757.9-92,761.431-92,765.806Z"/><path class="f" d="M-8.72,842.419H-79.363l-6.479-69.762H-2.265Z"/><path class="g" d="M-.485,784.114H-87.648L-96.519,761.2H8.386Z"/><path class="h" d="M638.709,749.878a21.689,21.689,0,0,1-21.684,21.706H140.743a21.69,21.69,0,0,1-21.684-21.706V451.22a21.684,21.684,0,0,1,21.684-21.689H617.025a21.683,21.683,0,0,1,21.684,21.689Z"/><path class="i" d="M617.025,429.531H140.743a21.684,21.684,0,0,0-21.684,21.689v40.292h519.65V451.22A21.683,21.683,0,0,0,617.025,429.531Z"/><path class="j" d="M171.66,460.717a10.778,10.778,0,1,1-10.772-10.786A10.789,10.789,0,0,1,171.66,460.717Z"/><path class="j" d="M198.857,460.717a10.768,10.768,0,1,1-10.781-10.776A10.772,10.772,0,0,1,198.857,460.717Z"/><path class="j" d="M225.136,460.717a10.765,10.765,0,1,1-10.758-10.773A10.774,10.774,0,0,1,225.136,460.717Z"/><rect class="b" width="174.069" height="43.989" transform="translate(200.5 696.809)"/><rect class="b" width="174.046" height="43.989" transform="translate(397.491 696.809)"/><rect class="b" width="458.701" height="159.191" transform="translate(157.903 514.947)"/><rect class="k" width="485.742" height="485.738" transform="translate(345.002 308.221)"/><rect class="l" width="485.742" height="45.883" transform="translate(345.002 308.221)"/><path class="j" d="M384.268,332.822a9.315,9.315,0,1,1-9.3-9.3A9.3,9.3,0,0,1,384.268,332.822Z"/><path class="j" d="M412.217,332.822a9.317,9.317,0,1,1-9.306-9.3A9.308,9.308,0,0,1,412.217,332.822Z"/><path class="j" d="M440.149,332.822a9.306,9.306,0,1,1-9.332-9.293A9.306,9.306,0,0,1,440.149,332.822Z"/><rect class="m" width="440.319" height="81.166" transform="translate(365.638 394.34)"/><rect class="m" width="440.319" height="81.153" transform="translate(365.638 674.89)"/><rect class="m" width="210.576" height="71.877" transform="translate(365.638 489.362)"/><rect class="m" width="210.576" height="71.891" transform="translate(365.638 573.834)"/><rect class="m" width="195.03" height="156.363" transform="translate(610.927 489.362)"/><rect class="n" width="8.92" height="130.738" transform="translate(324.853 705.867)"/><path class="n" d="M382.146,576.832h-74.8c-11.694,0-21.176,9.749-21.176,21.793V705.867H403.309V598.625C403.309,586.581,393.833,576.832,382.146,576.832Z"/><path class="o" d="M403.309,708.035a7.875,7.875,0,0,1-7.768,7.994H232.415a7.879,7.879,0,0,1-7.781-7.994h0a7.876,7.876,0,0,1,7.781-7.981H395.541a7.871,7.871,0,0,1,7.768,7.981Z"/><rect class="n" width="103.04" height="10.184" transform="translate(276.135 832.244)"/><path class="p" d="M267.641,732.3c12.882,16.609,34.862,36.008,41.552,48.338,1.08,1.96,1.13,2.82-4.953,7.46-6.093,4.623,2.188,5.878,14.049,1.129,11.835-4.766-17.876-56.606-34.557-79.841C269.16,689.08,252.726,713.036,267.641,732.3Z"/><path class="q" d="M321.087,781.79s-8.626,8.241-16.847,6.308c0,0-11.028,6.056-2.432,6.282C310.421,794.606,325.666,791.739,321.087,781.79Z"/><path d="M320.261,626.343s-82.863,31.164-84.5,55.472c-1.444,21.862,54.339,84.138,54.339,84.138s14.954.835,24.647-10.083c0,0-31.468-39.315-24.578-51.915,8.233-15.067,68.081-8.815,68.081-8.815l-24.269-34.909Z"/><path class="p" d="M327.2,746.281c13.894,15.788,37.042,33.753,44.523,45.662,1.186,1.855,1.291,2.72-4.483,7.725-5.748,5,2.55,5.765,14.063.256,11.54-5.513-21.393-55.359-39.484-77.487C325.983,703.069,311.088,728.02,327.2,746.281Z"/><path class="q" d="M383.658,792.317s-8.129,8.793-16.418,7.351c0,0-10.636,6.773-2.038,6.434C373.813,805.78,388.859,801.966,383.658,792.317Z"/><path d="M345.252,639.151s-52.966,34.418-53.081,58.774c-.03,21.906,59.55,80.545,59.55,80.545s14.988-.113,23.969-11.635c0,0-33.058-40.735-28.662-55.793,3.081-10.51,27.08-15.754,30.091-31.842,7.117-38.233-18.464-30.378-18.464-30.378Z"/><path class="r" d="M365.936,774.96c-1.542-1.725-37.885-42.942-35.978-69.032,1.725-23.913,34.727-47.109,36.139-48.091l.943,1.369c-.339.226-33.745,23.73-35.435,46.848-1.833,25.386,35.2,67.385,35.587,67.806Z"/><path class="s" d="M309.862,637.548s38.835,26.719,67.153,15.641c0,0,2.816,10.335,1.529,14.741C378.544,667.93,329.3,669.5,309.862,637.548Z"/><path class="f" d="M313.7,553.123s17.363,2.82,13.935,28.783-8.52,36.795-8.52,36.795-16.926,2.841-40.385-10.223C278.729,608.478,289.816,545.707,313.7,553.123Z"/><path class="t" d="M380.23,646.832a.246.246,0,0,1,.083-.043s-.074,0-.083.043c-.252-.551-.435-1.073-.686-1.655h0c-7.894-22.088-13.873-35.96-8.537-59.157,7.685-33.257-17.514-35.286-32.867-36.872s-40.466.595-45.176,27.562c-3.395,19.442-1.527,45.754,7.449,64.261C310.605,661.965,392.786,670.671,380.23,646.832Z"/><path class="u" d="M321.969,532.964s.078,13.4,10.588,15.537c10.761,2.181-12.148,33.149-14.437,26.424-2.977-8.716-1.074-15.633-9.652-23.179Z"/><path class="v" d="M294.672,520.539c-3.863,9.966,2.483,42.664,12.916,45.579,4.558,1.2,16.288-8.255,18.521-25.016.921-6.869.483-18.743-9.584-26.112C311.961,511.649,299.138,508.96,294.672,520.539Z"/><path class="s" d="M289.158,527.485c.207,4.388,1.063,5.023,12.852,1.421,11.778-3.571,13.318-5.187,13.442-2.038.4,9.255,7.5,4,7.894,15.1.378,11.078,6.895,1.1,7.377-8.346.078-1.908,1.138-11.462-9.636-20.333C308.468,502.977,288.528,511.363,289.158,527.485Z"/><path class="u" d="M371.589,568.425c-1.317-3.371-9.741-6.669-19.733-4.549-13.391,2.889,10.283,56.615-7.682,50.763-18-5.887-26.255-40.231-29.094-48.369-2.815-8.181-.115-12.747-2.324-17.3-2.118-4.557-7.458-1.755-6.063,12.382.678,6.787,24.061,84.834,46.261,84.065C382.932,644.4,379.287,588.341,371.589,568.425Z"/><path class="f" d="M358.146,553.957s15.463-2.324,19.6,20.581,2.8,33.462,2.8,33.462-13.572,6.995-36.964,2.3C343.583,610.3,335.932,554.166,358.146,553.957Z"/><path class="v" d="M279.837,609.069s-4.621,11.7-3.187,16.992,22.616.843,22.616.843-6.143-7.977-6.6-12.092S279.837,609.069,279.837,609.069Z"/><path class="v" d="M299.266,626.9c16,12.086,25.735,6.769,31.505,9.406s2.459.525,5.77,2.65c3.284,2.09,5.886,5.07-3.659,4.258-4.57-.409-53.869,6.782-56.232-17.157C276.65,626.061,294.73,623.5,299.266,626.9Z"/><rect class="w" width="52.474" height="13.473" transform="translate(118.136 538.999)"/><rect class="x" width="11.109" height="13.473" transform="translate(170.611 538.999)"/><path class="x" d="M140.654,539.711l29.956,3.362V539Z"/><rect class="w" width="70.729" height="10.223" transform="translate(109.008 552.471)"/><rect class="x" width="15.487" height="10.223" transform="translate(164.25 552.471)"/><path class="x" d="M164.25,552.471H147.638l16.612,2.511Z"/><path class="y" d="M109.008,556.568l34.64,1.013h-34.64Z"/><rect class="z" width="52.475" height="16.079" transform="translate(121.796 561.435)"/><rect class="x" width="11.118" height="16.079" transform="translate(174.271 561.435)"/><path class="y" d="M121.8,569.476h26.237L121.8,572.2Z"/><rect class="aa" width="70.95" height="44.593" transform="translate(122.425 571.927)"/><rect class="ab" width="77.319" height="5.591" transform="translate(119.353 570.532)"/><rect class="ab" width="70.98" height="44.593" transform="translate(111.58 571.927)"/><rect class="aa" width="77.328" height="5.591" transform="translate(108.53 570.532)"/><path class="aa" d="M122.246,582.38a1.443,1.443,0,0,0,1.59,1.221h42.411a1.447,1.447,0,0,0,1.587-1.221h0a1.453,1.453,0,0,0-1.587-1.225H123.836a1.449,1.449,0,0,0-1.59,1.225Z"/><path class="ac" d="M123.747,582.38a1.455,1.455,0,0,1,1.6-1.225h40.9a1.265,1.265,0,1,1,0,2.446h-40.9A1.449,1.449,0,0,1,123.747,582.38Z"/><rect class="ad" width="70.95" height="2.077" transform="translate(122.425 576.123)"/><rect class="ac" width="70.98" height="2.077" transform="translate(111.58 576.123)"/><rect class="ae" width="64.19" height="41.461" transform="translate(102.202 601.944)"/><rect class="af" width="50.591" height="41.461" transform="translate(153.065 601.944)"/><path class="ae" d="M203.491,601.944l7.347-14.607H160.692l-7.214,14.607Z"/><path class="af" d="M153.065,601.944l-3.637,13.625H102.2V601.944Z"/><path class="ae" d="M102.2,601.944l-12.99,10.314h53.2l10.653-10.314Z"/><path class="ag" d="M198.093,620.573a1.222,1.222,0,0,1-1.3,1.152H161.967a1.223,1.223,0,0,1-1.3-1.152h0a1.228,1.228,0,0,1,1.3-1.147h34.824a1.227,1.227,0,0,1,1.3,1.147Z"/><path class="ah" d="M196.848,620.573a1.228,1.228,0,0,0-1.3-1.147H161.967a1.158,1.158,0,1,0,0,2.3h33.584A1.223,1.223,0,0,0,196.848,620.573Z"/><path class="ag" d="M198.093,624.914a1.233,1.233,0,0,1-1.3,1.155H161.967a1.234,1.234,0,0,1-1.3-1.155h0a1.232,1.232,0,0,1,1.3-1.156h34.824a1.231,1.231,0,0,1,1.3,1.156Z"/><path class="ah" d="M196.848,624.914a1.232,1.232,0,0,0-1.3-1.156H161.967a1.163,1.163,0,1,0,0,2.311h33.584A1.234,1.234,0,0,0,196.848,624.914Z"/><rect class="s" width="137.59" height="8.137" transform="translate(201.783 631.717)"/><path class="s" d="M285.772,639.837H187.8l-14.4-71.191h93.051Z"/><rect class="o" width="354.613" height="13.343" transform="translate(86.785 638.465)"/><path class="o" d="M91.406,841.919H78.062l49.62-202.086,13.314,3.2Z"/><path class="o" d="M446.551,841.919H432.157l-47.2-199.249,13.386-3.041Z"/><path class="ai" d="M1108.973,474.206c0-109.295-88.6-197.9-197.9-197.9S712.8,365.606,713.182,474.9a197.233,197.233,0,0,0,57.774,139.032A224.6,224.6,0,0,1,829.1,713.77l15.957,59.016H974.782l15.113-55.9a225.126,225.126,0,0,1,59.923-101.576A197.28,197.28,0,0,0,1108.973,474.206Z"/><path class="aj" d="M941.042,841.906H877.793c-17.919,0-33.251-13.234-34.272-30.024l-5.339-64.809,143.246-.918-6.114,65.727C974.293,828.672,958.961,841.906,941.042,841.906Z"/><path class="ak" d="M968.55,774.418c-40.015,1.711-80.172-.34-120.183,1.429-3.553.157-3.287,5.343.2,5.459,40.043,1.33,80.192-1.152,120.239.121C973.3,781.57,973.1,774.223,968.55,774.418Z"/><path class="ak" d="M968.55,791.8c-40.015,1.711-80.172-.34-120.183,1.429-3.553.157-3.287,5.343.2,5.459,40.043,1.33,80.192-1.152,120.239.122C973.3,798.952,973.1,791.6,968.55,791.8Z"/><path class="ai" d="M927.212,175.68c0,12.752-6.78,58.6-15.145,58.6s-15.145-45.847-15.145-58.6,6.781-23.091,15.145-23.091S927.212,162.927,927.212,175.68Z"/><path class="ai" d="M1115.926,246.094c-9.673,8.311-40.027,43.332-34.576,49.677s44.644-18.391,54.316-26.7,13.095-20.192,7.644-26.536S1125.6,237.783,1115.926,246.094Z"/><path class="ai" d="M1189.476,450.687c-12.651,1.607-58.986.657-60.04-7.641s43.572-20.8,56.224-22.408,23.761,3.817,24.815,12.115S1202.127,449.08,1189.476,450.687Z"/><path class="ai" d="M725.529,230.867c10.04,7.862,41.955,41.468,36.8,48.053s-45.433-16.343-55.473-24.206-14-19.575-8.842-26.16S715.488,223,725.529,230.867Z"/><path class="ai" d="M629.692,417.911c12.651,1.607,58.987.657,60.041-7.641s-43.573-20.8-56.224-22.408-23.761,3.818-24.815,12.115S617.041,416.3,629.692,417.911Z"/><path class="r" d="M996.49,574.966a50.922,50.922,0,0,1-14.9-17.593c7.177-8.861,10.339-20.776,11.654-31.852a199.455,199.455,0,0,0,1.139-20.372c.106-6.566-.758-12.144-6.319-16.232-4.959-3.644-11.579-.355-15.385,3.182-4.39,4.08-6.515,10.763-8.21,16.327-3.424,11.237-3.361,23.283-1.212,34.738a68.942,68.942,0,0,0,3.309,11.716,30.456,30.456,0,0,1-9.507,5.063c-10.813,3.46-19.02-2.769-24.025-11.987-.822-1.515-1.6-3.12-2.337-4.79.85-2.278,1.662-4.556,2.419-6.809a142.137,142.137,0,0,0,6.63-33.924c.763-9.53,1.034-20.919-8.135-26.564-2.948-1.816-6.259-.444-8.112,2.127-13.4,18.586-12.645,43.235-5.367,64.324a140.144,140.144,0,0,1-8.147,16.294c-3.359,5.785-9.771,14.709-17.551,13.577-7.242-1.055-13.033-10.145-16.633-15.768a64.238,64.238,0,0,1-6.344-13.1q1.381-3.63,2.562-7.347a134.6,134.6,0,0,0,5.625-30.053c.675-8.489.948-20.412-8.337-24.478-2.7-1.183-6.689-1.059-8.122,2.129a85.02,85.02,0,0,0-4.572,57.263c.174.651.379,1.3.572,1.945a125.8,125.8,0,0,1-24.586,38.886c-4.667,5.066,2.72,12.539,7.579,7.579a132.12,132.12,0,0,0,23-31.876,83.447,83.447,0,0,0,6.008,9.652c6.063,8.4,13.661,16.258,24.571,16.847,10.189.551,18.465-8.016,23.986-15.463a80.771,80.771,0,0,0,7.026-11.523c4.99,7.951,12.189,14.257,21.993,15.631,9.022,1.264,17.762-1.539,25.155-6.489a75.084,75.084,0,0,0,16.451,19.466C995.812,591.73,1004.321,580.694,996.49,574.966ZM928.328,492.43c.418,4.742-.679,10.593-.943,13.467a113.254,113.254,0,0,1-2.612,15.588C923.536,511.379,924.363,501.016,928.328,492.43Zm46.231,29.822a56.327,56.327,0,0,1,3.313-14.41,29.648,29.648,0,0,1,2.881-5.963,12.81,12.81,0,0,1,.933-1.155,9.216,9.216,0,0,1,.228,1.434c.633,12.007-.359,24.965-4.1,36.414a36.073,36.073,0,0,1-1.65,4.135A67.683,67.683,0,0,1,974.559,522.252Z"/><path class="r" d="M1007.745,545.858c-21.044,64.225-43.193,128.128-66.989,191.387-2.849,7.573,8.817,12.213,11.65,4.645,23.714-63.354,45.738-127.284,65.49-191.985C1019.933,543.231,1009.949,539.132,1007.745,545.858Z"/><path class="r" d="M816.357,541.8c16.792,65.465,32.479,131.253,46.432,197.384,1.67,7.917,14,5.556,12.32-2.349-14.073-66.166-29.88-131.91-48.018-197.082C825.22,533.03,814.6,534.942,816.357,541.8Z"/><path class="al" d="M1196.905,378.8s-9.785-5.17-19.959,8.963c-11.768,16.495-9.633,65.362-32.446,82.377-22.8,16.972-41.223,9.685-54.193,6.326-12.945-3.367-16.668-10.5-24.411-11.649-7.721-1.174-8.539,7.661,10.992,17.789,9.374,4.863,52.791,34.029,83.979,18.681C1201.708,481.152,1221.709,389.039,1196.905,378.8Z"/><path class="s" d="M1204.068,310.352s-6.291-9.643,7.26-11.538c31.145-4.354,74.972,24.071,61.033,77.138-18.71,71.273,7.725,55.424,22.657,67.353,45.488,36.427-12.982,92.385-61.843,56.758-27.1-19.752,3.66-58.1-3.261-72.378-6.926-14.183-20.933-18.469-22.822-42.464-1.9-24.064-6.036-54.249-8.264-60.491C1196.671,318.421,1199.2,312.087,1204.068,310.352Z"/><path class="v" d="M1128.158,611.028c4.011,62.182,24.94,158.947,27.879,211.283.221,3.639.72,4.31-11.33,7.388-13.948,3.521-3.228,10.842,18.595,10.638,20.489-.17,29.625-98.159,31.6-149.993.614-14.6-4.545-58.646,2.453-100.192.83,15.535,2.046,33.239,3.808,52.6,5.226,56.7,66.73,131.083,71.368,178.777.339,3.681-.11,5.1-10.9,8.809-10.78,3.647-.331,10.509,18.391,10,18.727-.544,7.282-99.315-2.448-145.564C1269.091,654.333,1123.52,539.278,1128.158,611.028Z"/><path class="am" d="M1148.125,495.794c37.313,30.161,83.992,20.425,104.3,15.671,5.49,53.782,38.837,255.695,42.595,283.415-16.376,6.573-21.823,7.975-26.559,7.975-79.073-123.7-69.992-176.709-70.834-192.252-2.978,17.958,6.794,105.947-10.285,192.252-5.722,4.464-23.064,10.281-35.466,0-.631-5.552-32.6-137.076-27.723-191.8C1128.831,558.436,1139.59,515.776,1148.125,495.794Z"/><path class="ab" d="M1174.793,828.543s-16.273,7.831-26.333,0c0,0-18.337,3-6.819,8.427C1153.209,842.386,1175.48,846.867,1174.793,828.543Z"/><path class="ab" d="M1287.961,830.338s-16.287,7.788-26.325,0c0,0-18.358,3.018-6.782,8.418C1266.392,844.171,1288.648,848.653,1287.961,830.338Z"/><path class="v" d="M1149.9,502.453s11.712-4.967,6.452-52.1c-2.491-22.492-11.031-24.039,7.5-48.6,19.214-25.433,53.909-35.891,64.926-19.463,20.67,30.942,12.8,46.256,10.848,67.778-1.178,12.49-11.822,27.438,5.04,59.121Z"/><path class="an" d="M1254.736,514.178S1187.8,535.291,1144.791,504c0,0-10.669-71.341,13.246-94.044,0,0,19.777,12,35.869-10.782,12.952-18.383,29.357-22.023,29.357-22.023a73.8,73.8,0,0,1,11.069,7,33.681,33.681,0,0,1,10.424,14.149Z"/><path class="u" d="M1228.817,331.822S1213,360.936,1217.7,373.079c2.622,6.887-31.315,20.45-27.473,13.171,7.129-13.486,5.972-19.26-.843-31Z"/><path class="v" d="M1201.492,310.488c-10.971,9.379-24.9,52.217-14.6,62.361,4.486,4.439,24.585,7.985,37.83-17.728,4.287-8.359,12.754-21.939,5.854-37.142C1227.427,311.083,1214.259,299.613,1201.492,310.488Z"/><path class="s" d="M1193.554,311.891c-1.373,5.8-1.783,9.2,11.56,8.682,16.405-.639,12.961,10.7,11.046,14.531-5.54,11.216,14.461.9,7.692,14.311-6.794,13.4,12.3-2.118,13.949-4.064,1.69-1.94,7.662-10.654-.347-30.994C1229.465,293.975,1197.777,294.128,1193.554,311.891Z"/><path class="v" d="M1236.064,383.886s-9.035-4.09-17.341,9.073c-9.62,15.339-5.222,58.8-24.665,75.167s-36.258,10.832-47.991,8.511c-11.742-2.338-15.418-8.495-22.365-9.149-6.968-.6-7.251,7.329,10.708,15.314,8.637,3.86,48.842,27.584,75.863,12.244C1245.688,474.97,1258.684,391.734,1236.064,383.886Z"/><path class="r" d="M1246.831,565.315c-23.19-7.389-25.24-30.407-25.266-30.636l3.084-.238c.06.858,1.939,21.172,23.127,27.932Z"/><path class="r" d="M1138.264,555.588l-.944-2.951c21.246-6.768,23.115-27.72,23.127-27.924l3.084.238C1163.506,525.172,1161.459,548.19,1138.264,555.588Z"/></g></svg>