<svg xmlns="http://www.w3.org/2000/svg" width="30" height="30" viewBox="0 0 30 30"><defs><style>.a{fill:#bcbcbc;}</style></defs><g transform="translate(-1 -1)"><path class="a" d="M213.125,210.063A3.063,3.063,0,1,1,210.063,207,3.062,3.062,0,0,1,213.125,210.063Zm0,0" transform="translate(-194.063 -194.063)"/><path class="a" d="M150.179,137.6a3.043,3.043,0,0,0-1.744-1.744,5.083,5.083,0,0,0-1.706-.316c-.969-.044-1.259-.054-3.713-.054s-2.744.009-3.713.053a5.087,5.087,0,0,0-1.706.316,3.044,3.044,0,0,0-1.744,1.744,5.085,5.085,0,0,0-.316,1.706c-.044.969-.054,1.259-.054,3.713s.01,2.744.054,3.713a5.083,5.083,0,0,0,.316,1.706,3.043,3.043,0,0,0,1.744,1.744,5.077,5.077,0,0,0,1.706.316c.969.044,1.259.053,3.712.053s2.744-.009,3.713-.053a5.077,5.077,0,0,0,1.706-.316,3.042,3.042,0,0,0,1.744-1.744,5.089,5.089,0,0,0,.316-1.706c.044-.969.053-1.26.053-3.713s-.009-2.744-.053-3.713A5.078,5.078,0,0,0,150.179,137.6Zm-7.162,10.136a4.718,4.718,0,1,1,4.718-4.718A4.718,4.718,0,0,1,143.017,147.738Zm4.9-8.52a1.1,1.1,0,1,1,1.1-1.1A1.1,1.1,0,0,1,147.921,139.219Zm0,0" transform="translate(-127.017 -127.021)"/><path class="a" d="M15,0A15,15,0,1,0,30,15,15,15,0,0,0,15,0Zm8.561,18.551a6.319,6.319,0,0,1-.4,2.091,4.4,4.4,0,0,1-2.519,2.519,6.324,6.324,0,0,1-2.091.4c-.919.042-1.212.052-3.551.052s-2.633-.01-3.551-.052a6.324,6.324,0,0,1-2.091-.4,4.4,4.4,0,0,1-2.519-2.519,6.318,6.318,0,0,1-.4-2.091C6.4,17.633,6.387,17.339,6.387,15s.01-2.633.052-3.551a6.32,6.32,0,0,1,.4-2.091A4.407,4.407,0,0,1,9.358,6.839a6.325,6.325,0,0,1,2.091-.4c.919-.042,1.212-.052,3.551-.052s2.633.01,3.551.052a6.327,6.327,0,0,1,2.091.4,4.405,4.405,0,0,1,2.519,2.519,6.319,6.319,0,0,1,.4,2.091c.042.919.052,1.212.052,3.551S23.6,17.633,23.561,18.551Zm0,0" transform="translate(1 1)"/></g></svg>