<svg xmlns="http://www.w3.org/2000/svg" width="52.302" height="52" viewBox="0 0 52.302 52"><defs><style>.a{fill:#a97c50;}.b{fill:#e6e7e8;}.c{fill:#d8d7da;}.d{fill:#8b5e3c;}.e{fill:#ffa733;}.f{fill:#d1d3d4;}.g{fill:#787680;}.h{fill:#898890;}.i{fill:#00ccb3;}.j{fill:#00b39d;}.k{fill:#ff5023;}.l{fill:#ff9811;}.m{fill:#ffd422;}.n{fill:#cc7400;}.o{fill:#ee8700;}.p{fill:#d80027;}.q{fill:#c6c5ca;}</style></defs><g transform="translate(-3 -3)"><path class="a" d="M51.655,14.586V52.241a3.586,3.586,0,0,1-3.586,3.586H17.586a3.586,3.586,0,0,1-2.152-.717,3.383,3.383,0,0,1-.654-.637A3.61,3.61,0,0,1,14,52.241V14.586A3.586,3.586,0,0,1,17.586,11H48.069A3.586,3.586,0,0,1,51.655,14.586Z" transform="translate(-1.138 -0.828)"/><path class="b" d="M48.483,15.9V45.483H43.1a1.8,1.8,0,0,0-1.793,1.793v5.379H18.9a.9.9,0,0,1-.9-.9V15.9a.9.9,0,0,1,.9-.9h28.69A.9.9,0,0,1,48.483,15.9Z" transform="translate(-1.552 -1.241)"/><path class="c" d="M38.477,42.149l-.637,3.174-1.9,1.9a1.794,1.794,0,1,0,2.537,2.537l1.9-1.9,3.174-.637.628-.637,6.106-6.106V30.35Z" transform="translate(-3.354 -2.829)"/><path class="d" d="M55.586,26.35,52,29.934V40.067l3.586-3.586Z" transform="translate(-5.069 -2.416)"/><path class="c" d="M26.679,50.87a8.786,8.786,0,0,1-.977,2.349l1.282,1.712H18.9a.9.9,0,0,1-.9-.9V37h1.793l.421,2.977a8.786,8.786,0,0,1,2.349.977l2.412-1.811,2.537,2.537L25.7,44.092a8.786,8.786,0,0,1,.977,2.349l2.977.421v3.586Z" transform="translate(-1.552 -3.517)"/><path class="b" d="M59.429,23.718A3.574,3.574,0,0,0,56.9,22.66a3.429,3.429,0,0,0-1.2.215,3.518,3.518,0,0,0-1.336.843L53.09,24.982,55.7,27.591l2.466,2.466,1.264-1.273a3.566,3.566,0,0,0,0-5.066Z" transform="translate(-5.182 -2.034)"/><path class="e" d="M55.48,27.859,52.871,25.25l-.977.977v.009l-.923.914.923.923,1.614,1.614L55.48,31.66l.565.565,1.9-1.9Z" transform="translate(-4.962 -2.302)"/><path class="f" d="M51.172,49,44,56.172V50.793A1.8,1.8,0,0,1,45.793,49Z" transform="translate(-4.241 -4.759)"/><path class="b" d="M51.172,49v6.276a.9.9,0,0,1-.9.9H44Z" transform="translate(-4.241 -4.759)"/><path class="g" d="M38.378,47.587l-1.9,1.9a1.794,1.794,0,0,1-2.537-2.537l1.9-1.9Z" transform="translate(-3.147 -4.35)"/><path class="h" d="M42.459,45.876l-.628.637-3.174.637L36.12,44.611l.637-3.174.637-.628,2.528,2.537h.009Z" transform="translate(-3.426 -3.911)"/><path class="i" d="M50.5,28.293l-.923-.923L37.54,39.42l2.528,2.537h.009L50.5,31.521l1.614-1.614Z" transform="translate(-3.573 -2.521)"/><path class="j" d="M54.383,32.172,52.411,30.2,50.8,31.814,40.37,42.25,42.9,44.778l7.9-7.9,3.586-3.586.565-.556Z" transform="translate(-3.866 -2.814)"/><path class="k" d="M30.526,26.542A3.586,3.586,0,1,1,27.585,25,3.586,3.586,0,0,1,30.526,26.542Z" transform="translate(-2.172 -2.276)"/><path class="e" d="M24,16H43.724v2.69H24Z" transform="translate(-2.172 -1.345)"/><path class="l" d="M42.5,10.172a3.586,3.586,0,0,0-2.367-.9h-2.69V6.586a3.586,3.586,0,1,0-7.172,0v2.69h-2.69A3.594,3.594,0,0,0,24,12.862v1.793H43.724V12.862a3.572,3.572,0,0,0-1.219-2.69Z" transform="translate(-2.172)"/><path class="d" d="M27.1,55.63,26,56.724l-1.443,1.443-1.919-1.443-.493-.368a7.3,7.3,0,0,1-.69.368,8.51,8.51,0,0,1-1.659.61l-.17,1.183H17.586a3.586,3.586,0,0,1-2.152-.717l-.063-.466c-.2-.054-.4-.108-.592-.17A3.61,3.61,0,0,1,14,54.931V40.461a8.03,8.03,0,0,1,1.372-.484L15.793,37h1.793V54.034a.9.9,0,0,0,.9.9H26.57Z" transform="translate(-1.138 -3.517)"/><path class="l" d="M23.334,48.87a8.786,8.786,0,0,1-.977,2.349l1.811,2.412-1.094,1.094L21.63,56.168l-1.919-1.443-.493-.368a7.3,7.3,0,0,1-.69.368,8.51,8.51,0,0,1-1.659.61l-.421,2.977H12.862l-.421-2.977a8.786,8.786,0,0,1-2.349-.977L7.68,56.168,5.143,53.63l1.811-2.412a8.786,8.786,0,0,1-.977-2.349L3,48.448V44.862l2.977-.421a8.786,8.786,0,0,1,.977-2.349L5.143,39.68,7.68,37.143l2.412,1.811a8.786,8.786,0,0,1,2.349-.977L12.862,35h3.586l.421,2.977a8.786,8.786,0,0,1,2.349.977l2.412-1.811,2.537,2.537-1.811,2.412a8.786,8.786,0,0,1,.977,2.349l2.977.421v3.586Z" transform="translate(0 -3.31)"/><path class="m" d="M17.276,43.368a4.557,4.557,0,0,0-3.586,0,4.493,4.493,0,0,0,0,8.23,4.557,4.557,0,0,0,3.586,0,4.493,4.493,0,0,0,0-8.23Z" transform="translate(-0.828 -4.138)"/><path class="n" d="M34,6h1.793V7.793H34Z" transform="translate(-3.207 -0.31)"/><g transform="translate(5.69 34.379)"><path class="o" d="M15,38h1.793v1.793H15Z" transform="translate(-6.931 -38)"/><path class="o" d="M0,0H1.793V1.793H0Z" transform="translate(1.987 3.257) rotate(-45)"/><path class="o" d="M6,47H7.793v1.793H6Z" transform="translate(-6 -38.931)"/><path class="o" d="M0,0H1.793V1.793H0Z" transform="translate(1.986 14.667) rotate(-45)"/><path class="o" d="M15,56h1.793v1.793H15Z" transform="translate(-6.931 -39.862)"/><path class="o" d="M0,0H1.793V1.793H0Z" transform="translate(13.396 14.668) rotate(-45)"/><path class="o" d="M24,47h1.793v1.793H24Z" transform="translate(-7.862 -38.931)"/><path class="o" d="M0,0H1.793V1.793H0Z" transform="translate(13.397 3.258) rotate(-45)"/></g><path class="p" d="M0,0H6.34V1.793H0Z" transform="translate(24.775 26.573) rotate(-45)"/><path class="q" d="M35,26h1.793v1.793H35Z" transform="translate(-3.31 -2.379)"/><path class="q" d="M39,26h3.586v1.793H39Z" transform="translate(-3.724 -2.379)"/><path class="q" d="M35,30h5.379v1.793H35Z" transform="translate(-3.31 -2.793)"/></g></svg>