<svg xmlns="http://www.w3.org/2000/svg" width="956.461" height="710.896" viewBox="0 0 956.461 710.896"><defs><style>.a{fill:#b2d2ea;}.b{fill:#252956;}.c{fill:#bdd0fb;}.d{fill:#414682;}.e{fill:#4f568c;stroke:#fff;stroke-miterlimit:10;}.f{fill:#fff;}.g{fill:#fbc6b4;}.h{fill:#d16300;}.i{fill:#f7b2a0;}.j{fill:#1d1b3a;}.k{fill:#3d2923;}.l{fill:#ef8c81;}.m{fill:#d7d4ff;}.n{fill:#bcc0ed;}.o{fill:#f4b1a6;}.p{fill:#036a18;}.q{fill:#08841c;}.r{fill:#663006;}.s{fill:#ff8000;}.t{fill:#dd6900;}</style></defs><g transform="translate(-44.203 -125.336)"><circle class="a" cx="330.215" cy="330.215" r="330.215" transform="translate(184.272 125.336)"/><g transform="translate(407.956 145.585)"><g transform="translate(0 0)"><path class="b" d="M942.168,796.161a40.146,40.146,0,0,1-40.347,39.986H457.946a40.162,40.162,0,0,1-40.355-39.986V186.107a40.186,40.186,0,0,1,40.355-39.986H901.82a40.17,40.17,0,0,1,40.347,39.986Z" transform="translate(-417.591 -146.121)"/><path class="c" d="M896.677,702.887c0,21.449-18.058,38.86-40.348,38.86H508.485c-22.267,0-40.346-17.411-40.346-38.86V241.981c0-21.458,18.079-38.862,40.346-38.862H856.328c22.291,0,40.348,17.4,40.348,38.862Z" transform="translate(-418.895 -147.592)"/><path class="d" d="M700.5,809.55a23.112,23.112,0,1,1-23.112-22.9A23.014,23.014,0,0,1,700.5,809.55Z" transform="translate(-423.699 -162.65)"/><path class="d" d="M790.239,172.863a5.356,5.356,0,0,1-5.379,5.34H593.875a5.362,5.362,0,0,1-5.372-5.34h0a5.346,5.346,0,0,1,5.372-5.308H784.861a5.34,5.34,0,0,1,5.379,5.308Z" transform="translate(-422.001 -146.674)"/></g><g transform="translate(81.583 115.176)"><rect class="e" width="166.097" height="99.918"/><g transform="translate(23.357 11.679)"><path class="f" d="M525.311,343.1l36.334-44.119L584,330.123l26.951-16.869L631.232,343.1Z" transform="translate(-525.311 -276.92)"/><circle class="f" cx="7.786" cy="7.786" r="7.786" transform="translate(79.156)"/></g></g><g transform="translate(276.227 115.176)"><rect class="e" width="166.097" height="99.918"/><g transform="translate(23.357 11.679)"><path class="f" d="M725.111,343.1l36.334-44.119L783.8,330.123l26.951-16.869L831.032,343.1Z" transform="translate(-725.111 -276.92)"/><circle class="f" cx="7.786" cy="7.786" r="7.786" transform="translate(79.156)"/></g></g><g transform="translate(81.583 265.394)"><rect class="e" width="166.097" height="99.918"/><g transform="translate(23.357 11.679)"><path class="f" d="M525.311,497.3l36.334-44.119L584,484.321l26.951-16.869L631.232,497.3Z" transform="translate(-525.311 -431.118)"/><circle class="f" cx="7.786" cy="7.786" r="7.786" transform="translate(79.156)"/></g></g><g transform="translate(276.227 265.394)"><rect class="e" width="166.097" height="99.918"/><g transform="translate(23.357 11.679)"><path class="f" d="M725.111,497.3l36.334-44.119L783.8,484.321l26.951-16.869L831.032,497.3Z" transform="translate(-725.111 -431.118)"/><circle class="f" cx="7.786" cy="7.786" r="7.786" transform="translate(79.156)"/></g></g><g transform="translate(81.583 421.11)"><rect class="e" width="166.097" height="99.918"/><g transform="translate(23.357 11.679)"><path class="f" d="M525.311,657.137l36.334-44.119L584,644.161l26.951-16.869,20.277,29.845Z" transform="translate(-525.311 -590.958)"/><circle class="f" cx="7.786" cy="7.786" r="7.786" transform="translate(79.156)"/></g></g><g transform="translate(276.227 421.11)"><rect class="e" width="166.097" height="99.918"/><g transform="translate(23.357 11.679)"><path class="f" d="M725.111,657.137l36.334-44.119L783.8,644.161l26.951-16.869,20.277,29.845Z" transform="translate(-725.111 -590.958)"/><circle class="f" cx="7.786" cy="7.786" r="7.786" transform="translate(79.156)"/></g></g></g><g transform="translate(44.203 142.702)"><g transform="translate(289.527 0)"><path class="g" d="M341.4,352.44s31.572-44.713,38.1-61.587c9.239-23.973,18.743-101.065,18.743-101.065s8.921-58.757,20.58-44.354c3.673,4.566-2.338,37.2-5.092,49.291-6.735,30.064,10.8,72.879-4.409,123.183-6.247,20.648-37.1,89.469-37.1,89.469Z" transform="translate(-341.399 -143.162)"/></g><g transform="translate(157.551 178.398)"><path class="g" d="M361.516,479.682c-17.256-48.475,11.429-94.225,6.147-125.647-6.3-37.194-70.546-29.27-93.678-20.1-23.153,9.12-61.474,23.2-35.059,71.567,18.376,33.73,15.109,57.9,12.483,95.683h0c-.111,1-.262,1.88-.352,2.854a1.528,1.528,0,0,1-.149-.034c0,.02.074.032.148.065-13.628,107.344-19.73,145.677-29.72,186.214-11.432,46.4-25.535,145.584-4.8,146.4,20.709.831,32.4-5.909,20.507-9.752-11.907-3.88-12.345-5.338-11.9-9.031,5.8-47.949,74.944-121.766,81.549-178.726,2.247-19.482,3.849-37.23,5-52.847,7.124,41.9.819,86.127,1.253,100.818,1.462,52.186,10.177,150.857,32.871,151.377,24.139.564,36.148-6.606,20.739-10.4-13.273-3.252-12.74-3.95-12.441-7.582,3.983-52.622,28.568-149.62,33.923-212.115C394.227,536.317,362.494,482.464,361.516,479.682Z" transform="translate(-205.928 -326.285)"/></g><g transform="translate(152.213 344.28)"><path d="M367.441,496.562c-41.768,29.741-94.736,19.586-117.15,14.459-6.884,54.031-45.281,256.287-49.843,284.116,18.074,6.859,24.06,8.353,29.3,8.427,98.9-140.962,80.656-197.22,81.81-212.837,3.062,18.054,2.213,123.609,8.023,214.116,6.318,4.571,25.42,10.69,39.28.559.807-5.541,28.582-187.468,29.041-192.574C392.421,559.827,376.554,516.807,367.441,496.562Z" transform="translate(-200.448 -496.562)"/></g><g transform="translate(198.693 179.349)"><path class="h" d="M267.24,337.2a3.239,3.239,0,0,1,4.214,1.469c5.97,11.638,31.253,55.886,67.229,48.569,11.622-2.364,21.124-17.71-8.323-54.684a3.25,3.25,0,0,1,3.4-5.165l13.355,3.729a3.228,3.228,0,0,1,1.962,1.541c4.039,7.256,25.319,47.358,35.173,103.644,9.73,55.59,1.227,84.042-.745,89.588a3.2,3.2,0,0,1-1.354,1.673c-3.853,2.372-20.3,10.532-68.705,14.187-24.253,1.811-44.973-.014-63.016-5.514a3.235,3.235,0,0,1-2.252-3.487c1.492-12.513,7.515-65.74,4.9-89.447a3.22,3.22,0,0,1,2.818-3.566c8.04-.908,27.851-6.787,25.531-42.839a62.366,62.366,0,0,0-27.5-48.315,3.242,3.242,0,0,1,.5-5.646Z" transform="translate(-248.159 -327.261)"/></g><g transform="translate(231.537 153.21)"><path class="i" d="M281.873,300.43s12.989,17.28,1.636,30.316c-11.637,13.316,48.082,30.651,44.394,19.7-4.737-14.062-13.856-21.056-10.343-39.178Z" transform="translate(-281.873 -300.43)"/></g><g transform="translate(219.341 107.073)"><path class="g" d="M304.5,256.509c14.65,9.016,38.517,57.21,27.975,71.12C327.844,333.7,303.535,333,284.225,313.7c-7.929-7.934-19.036-23.581-13.278-42.887C273.5,262.058,287.33,246.023,304.5,256.509Z" transform="translate(-269.354 -253.071)"/></g><g transform="translate(212.012 102.041)"><path class="j" d="M318.043,259.923c4.061,5.83,3.566,7.445-15.079,14.37-18.549,6.959-22.086,6.416-19.233,10.568,8.574,12.286-5.649,12.475,4.733,27.1,10.351,14.613-7.836,8.182-17.65-3.48-2.012-2.321-12.764-13.567-7.59-35.5C269.3,247.37,303.13,238.567,318.043,259.923Z" transform="translate(-261.831 -247.906)"/></g><g transform="translate(284.831 678.614)"><path class="k" d="M336.607,839.752s17.97,8.136,29.174.415c0,0,20.265,3.335,7.438,8.554C360.3,854.009,335.628,858.177,336.607,839.752Z" transform="translate(-336.579 -839.752)"/></g><g transform="translate(159.469 678.634)"><path class="k" d="M207.926,839.772s17.95,8.12,29.163.415c0,0,20.288,3.34,7.417,8.591C231.656,854.014,206.925,858.181,207.926,839.772Z" transform="translate(-207.897 -839.772)"/></g><g transform="translate(199.753 406.405)"><path class="f" d="M249.492,589.479l-.245-2.317c7.4-.815,12.718-3.54,15.857-8.1,5.227-7.635,2.495-18.039,2.485-18.136l2.246-.594c.122.463,3.006,11.5-2.8,20.021C263.491,585.508,257.6,588.566,249.492,589.479Z" transform="translate(-249.247 -560.332)"/></g><g transform="translate(0 387.249)"><path class="l" d="M70.939,790.677H474.167L486.5,579.435H58.623Z" transform="translate(-44.575 -541.669)"/><path class="l" d="M259.972,607.357c0,26.476-27.142,47.939-60.63,47.939l-137.38,1.226-5.471-97.1H199.342C232.83,559.425,259.972,580.893,259.972,607.357Z" transform="translate(-44.52 -541.152)"/><rect class="m" width="408.781" height="166.823" transform="translate(23.588 60.384)"/><path class="m" d="M483.313,778.992H98.164V612.168l395.91-2.907Z" transform="translate(-45.595 -542.439)"/><rect class="f" width="400.923" height="166.813" transform="translate(31.83 50.635)"/><rect class="n" width="166.812" height="400.925" transform="translate(16.825 160.719) rotate(-74.466)"/><rect class="f" width="382.348" height="166.823" transform="translate(47.56 69.73)"/><path class="o" d="M490.4,637.207l2.281-39.01h-149c-30.906,0-56.575,16.808-62.109,39.01H44.2L57.055,848.435H477.68L487,695.3h0l.015-.153,3.526-57.942Z" transform="translate(-44.203 -542.153)"/><path class="l" d="M492.978,598.2H469.739a173.09,173.09,0,0,1,.988,17.461c0,123.579-133.135,223.755-297.372,223.755A381.5,381.5,0,0,1,55.693,821.176l1.658,27.259H477.976L487.293,695.3l.015-.153,3.526-57.942H490.7Z" transform="translate(-44.5 -542.153)"/></g><g transform="translate(180.291 225.951)"><path class="g" d="M278.016,409.61a3.6,3.6,0,0,1,1.232,3.623c-2.421,10.2-12.389,53.183-12.28,69.084.195,25.71,19.657,100.9,19.657,100.9s13.293,57.915-2.834,48.8c-5.1-2.908-11.475-35.479-13.379-47.709-4.78-30.44-40.785-71.835-41.132-116.216-.133-17.426,1.033-70.014,1.483-89.481a3.6,3.6,0,0,1,5.88-2.7Z" transform="translate(-229.27 -375.098)"/></g><g transform="translate(308.05 397.484)"><path class="f" d="M380.925,580.906c-8.069-1.133-13.87-4.368-17.243-9.632-5.562-8.694-2.375-19.624-2.219-20.1l2.24.674c-.066.1-3.05,10.408,1.947,18.178,2.985,4.658,8.245,7.56,15.618,8.58Z" transform="translate(-360.413 -551.175)"/></g></g><path class="h" d="M258.554,340.377S227.173,353.5,230.7,380.822c-1.147,28.877-1.128,56.058-1.128,56.058l42.246,9.635,3.678-17.671s16.363-14.472,3.9-53.584A79.844,79.844,0,0,0,258.554,340.377Z" transform="translate(-4.784 -5.549)"/><path class="h" d="M380.815,291.583c2.365,2.266,19.218,17.956,31.238,17.051a.3.3,0,0,1,.32.363c-.784,3.4-6.582,27.746-15.87,45.759l-.008.017-18.969,44.108a.308.308,0,0,1-.569.009c-1.885-4.493-12.891-30.628-19.468-43.877a.186.186,0,0,0-.028-.046c-.541-.675-17.754-22.15-21.928-28.4a.309.309,0,0,1,.342-.467c2.338.584,7.563,1.527,11.675,2.9,6.1,1.526,6.228,3.052,9.16,3.113a.333.333,0,0,0,.282-.146l5.4-8.305.011-.018,17.937-31.979A.3.3,0,0,1,380.815,291.583Z" transform="translate(-7.517 -4.288)"/><g transform="translate(844.781 565.715)"><g transform="translate(48.503)"><g transform="translate(19.236 20.536)"><path class="p" d="M936.316,796.345l2.605-.1c-6.942-155.593,35.332-195.421,35.781-195.8l-1.773-1.981C971.134,600.073,929.286,639.532,936.316,796.345Z" transform="translate(-935.521 -598.46)"/></g><path class="p" d="M994.469,607.086s-9.85,15.192-27.925,5.562C966.544,612.648,977.128,597.513,994.469,607.086Z" transform="translate(-917.085 -578.065)"/><path class="p" d="M984.622,626.47s-9.851,15.192-27.926,5.562C956.7,632.032,967.281,616.9,984.622,626.47Z" transform="translate(-916.831 -578.565)"/><path class="p" d="M972.371,670.088s-9.85,15.192-27.925,5.562C944.446,675.65,955.03,660.516,972.371,670.088Z" transform="translate(-916.515 -579.691)"/><path class="p" d="M967.744,688.627s-7.719,16.378-26.925,9.266C940.819,697.893,949.272,681.473,967.744,688.627Z" transform="translate(-916.421 -580.204)"/><path class="p" d="M964.22,708.617S956.5,725,937.3,717.882C937.3,717.882,945.749,701.463,964.22,708.617Z" transform="translate(-916.33 -580.72)"/><path class="p" d="M962.956,727.564s-7.72,16.378-26.925,9.266C936.031,736.83,944.484,720.41,962.956,727.564Z" transform="translate(-916.298 -581.209)"/><path class="p" d="M962.956,745.31s-7.72,16.378-26.925,9.266C936.031,754.576,944.484,738.156,962.956,745.31Z" transform="translate(-916.298 -581.667)"/><path class="p" d="M976.207,647.818s-9.851,15.192-27.926,5.562C948.281,653.38,958.866,638.245,976.207,647.818Z" transform="translate(-916.614 -579.116)"/><path class="p" d="M958.564,582.8s15.34,9.619,5.986,27.838C964.55,610.643,949.256,600.29,958.564,582.8Z" transform="translate(-916.802 -577.52)"/><path class="p" d="M944.381,604.635s16.746,6.884,10.611,26.423C954.992,631.058,938.166,623.444,944.381,604.635Z" transform="translate(-916.478 -578.083)"/><path class="p" d="M933.758,628.828s17.6,4.241,14.528,24.489C948.286,653.317,930.493,648.366,933.758,628.828Z" transform="translate(-916.229 -578.708)"/><path class="p" d="M928.073,654.345s17.6,4.241,14.528,24.489C942.6,678.834,924.81,673.883,928.073,654.345Z" transform="translate(-916.082 -579.366)"/><path class="p" d="M921.023,677.9s18.1-.516,20.433,19.831C941.456,697.731,922.988,697.611,921.023,677.9Z" transform="translate(-915.911 -579.974)"/><path class="p" d="M917.318,696.634s18.1-.515,20.434,19.831C937.752,716.465,919.284,716.345,917.318,696.634Z" transform="translate(-915.815 -580.457)"/><path class="p" d="M915.775,715.937s18.1-.516,20.434,19.831C936.209,735.768,917.741,735.648,915.775,715.937Z" transform="translate(-915.775 -580.955)"/><path class="p" d="M917.187,736.606s18.1-.516,20.433,19.831C937.62,756.437,919.152,756.317,917.187,736.606Z" transform="translate(-915.811 -581.489)"/><path class="p" d="M990.047,577.38s3.34,17.8-16.392,23.282C973.655,600.662,970.886,582.4,990.047,577.38Z" transform="translate(-917.265 -577.38)"/></g><g transform="translate(10.154 43.726)"><g transform="translate(12.989 13.578)"><path class="p" d="M927.185,773.381l-1.837.065c-3.421-109.767-35.269-135.515-35.6-135.757l1.141-1.488C892.232,637.24,923.761,662.751,927.185,773.381Z" transform="translate(-889.743 -636.202)"/></g><path class="p" d="M876.41,643.385s7.737,10.156,19.931,2.421C896.341,645.806,888.093,635.729,876.41,643.385Z" transform="translate(-876.41 -622.735)"/><path class="p" d="M884.368,656.489s7.737,10.155,19.931,2.42C904.3,658.909,896.051,648.833,884.368,656.489Z" transform="translate(-876.615 -623.073)"/><path class="p" d="M895.309,686.5s7.736,10.156,19.931,2.42C915.24,688.923,906.991,678.847,895.309,686.5Z" transform="translate(-876.898 -623.848)"/><path class="p" d="M899.569,699.293s6.3,11.1,19.424,5.078C918.993,704.371,912.174,693.277,899.569,699.293Z" transform="translate(-877.008 -624.206)"/><path class="p" d="M903.113,713.16s6.3,11.1,19.424,5.077C922.537,718.237,915.718,707.144,903.113,713.16Z" transform="translate(-877.099 -624.564)"/><path class="p" d="M905.013,726.414s6.3,11.1,19.424,5.077C924.438,731.491,917.618,720.4,905.013,726.414Z" transform="translate(-877.148 -624.906)"/><path class="p" d="M905.96,738.892s6.3,11.1,19.424,5.077C925.385,743.969,918.565,732.875,905.96,738.892Z" transform="translate(-877.173 -625.228)"/><path class="p" d="M891.424,671.05s7.736,10.155,19.931,2.42C911.355,673.47,903.106,663.394,891.424,671.05Z" transform="translate(-876.797 -623.449)"/><path class="p" d="M900.674,624.379s-10.272,7.582-2.723,19.892C897.951,644.271,908.151,636.177,900.674,624.379Z" transform="translate(-876.894 -622.319)"/><path class="p" d="M911.789,638.969s-11.408,5.733-6.051,19.144C905.738,658.113,917.162,651.862,911.789,638.969Z" transform="translate(-877.13 -622.695)"/><path class="p" d="M920.515,655.411s-12.149,3.921-8.908,17.993C911.606,673.4,923.852,668.974,920.515,655.411Z" transform="translate(-877.304 -623.119)"/><path class="p" d="M925.872,673.049s-12.15,3.92-8.908,17.993C916.964,691.042,929.21,686.612,925.872,673.049Z" transform="translate(-877.442 -623.575)"/><path class="p" d="M931.992,689.233s-12.753.6-13.308,15.033C918.684,704.266,931.662,703.2,931.992,689.233Z" transform="translate(-877.501 -623.992)"/><path class="p" d="M935.6,702.208s-12.753.6-13.308,15.033C922.288,717.241,935.266,716.171,935.6,702.208Z" transform="translate(-877.594 -624.327)"/><path class="p" d="M937.712,715.7s-12.753.6-13.309,15.034C924.4,730.731,937.381,729.66,937.712,715.7Z" transform="translate(-877.648 -624.675)"/><path class="p" d="M937.822,730.3s-12.752.6-13.308,15.034C924.513,745.338,937.491,744.268,937.822,730.3Z" transform="translate(-877.651 -625.052)"/><path class="p" d="M878.141,622.264s-1.4,12.69,12.768,15.5C890.909,637.76,891.881,624.774,878.141,622.264Z" transform="translate(-876.454 -622.264)"/></g><g transform="translate(76.704 64.801)"><g transform="translate(0.536 13.252)"><path class="p" d="M945.273,784.312l1.785.441c25.875-106.73,62.328-125.393,62.707-125.561l-.812-1.691C1007.421,658.24,971.328,676.738,945.273,784.312Z" transform="translate(-945.273 -657.501)"/></g><path class="p" d="M1022.815,667.453s-9.656,8.352-20-1.721C1002.812,665.732,1012.953,657.563,1022.815,667.453Z" transform="translate(-946.222 -644.38)"/><path class="p" d="M1012.337,678.646s-9.656,8.352-20-1.722C992.334,676.923,1002.475,668.755,1012.337,678.646Z" transform="translate(-945.952 -644.669)"/><path class="p" d="M995.47,705.776s-9.656,8.352-20-1.721C975.467,704.054,985.608,695.884,995.47,705.776Z" transform="translate(-945.517 -645.369)"/><path class="p" d="M988.681,717.427s-8.445,9.574-20.053.984C968.628,718.411,977.579,708.952,988.681,717.427Z" transform="translate(-945.34 -645.705)"/><path class="p" d="M982.367,730.271s-8.445,9.574-20.054.984C962.313,731.255,971.264,721.8,982.367,730.271Z" transform="translate(-945.177 -646.036)"/><path class="p" d="M977.787,742.854s-8.445,9.573-20.053.983C957.734,743.837,966.685,734.378,977.787,742.854Z" transform="translate(-945.059 -646.361)"/><path class="p" d="M974.3,754.871s-8.445,9.574-20.054.984C954.246,755.855,963.2,746.4,974.3,754.871Z" transform="translate(-944.969 -646.671)"/><path class="p" d="M1002.444,691.448s-9.656,8.351-20-1.722C982.44,689.726,992.581,681.557,1002.444,691.448Z" transform="translate(-945.697 -644.999)"/><path class="p" d="M1003.247,643.9s8.5,9.529-1.417,20.027C1001.829,663.925,993.507,653.91,1003.247,643.9Z" transform="translate(-946.111 -643.898)"/><path class="p" d="M989.367,655.885s9.987,7.952,1.993,19.979C991.36,675.864,981.462,667.4,989.367,655.885Z" transform="translate(-945.796 -644.207)"/><path class="p" d="M977.434,670.176s11.086,6.33,5.026,19.438C982.46,689.614,971.384,682.766,977.434,670.176Z" transform="translate(-945.521 -644.576)"/><path class="p" d="M968.571,686.339s11.086,6.33,5.026,19.438C973.6,705.777,962.521,698.929,968.571,686.339Z" transform="translate(-945.292 -644.993)"/><path class="p" d="M959.2,700.9s12.358,3.207,9.94,17.444C969.139,718.346,956.656,714.636,959.2,700.9Z" transform="translate(-945.088 -645.369)"/><path class="p" d="M953.009,712.861s12.358,3.207,9.94,17.444C962.949,730.3,950.466,726.6,953.009,712.861Z" transform="translate(-944.928 -645.678)"/><path class="p" d="M948.171,725.629s12.358,3.207,9.94,17.445C958.111,743.074,945.628,739.363,948.171,725.629Z" transform="translate(-944.803 -646.007)"/><path class="p" d="M945.065,739.9s12.358,3.207,9.94,17.444C955,757.347,942.522,753.637,945.065,739.9Z" transform="translate(-944.723 -646.375)"/><path class="p" d="M1025.585,646.482s-1.235,12.706-15.676,12.545C1009.909,659.027,1011.622,646.117,1025.585,646.482Z" transform="translate(-946.406 -643.964)"/></g><g transform="translate(93.408 99.422)"><g transform="translate(0.364 9.005)"><path class="q" d="M962.243,774.841l1.213.3c17.58-72.518,42.349-85.2,42.607-85.313l-.552-1.149C1004.469,689.182,979.946,701.75,962.243,774.841Z" transform="translate(-962.243 -688.679)"/></g><path class="q" d="M1014.93,695.441s-6.561,5.675-13.592-1.17C1001.338,694.271,1008.229,688.721,1014.93,695.441Z" transform="translate(-962.888 -679.763)"/><path class="q" d="M1007.811,703.045s-6.561,5.675-13.592-1.17C994.219,701.875,1001.11,696.325,1007.811,703.045Z" transform="translate(-962.705 -679.959)"/><path class="q" d="M996.35,721.479s-6.56,5.675-13.591-1.17C982.759,720.309,989.65,714.759,996.35,721.479Z" transform="translate(-962.409 -680.435)"/><path class="q" d="M991.737,729.4s-5.738,6.5-13.625.668C978.112,730.064,984.194,723.637,991.737,729.4Z" transform="translate(-962.289 -680.663)"/><path class="q" d="M987.447,738.122s-5.738,6.5-13.625.668C973.822,738.791,979.9,732.364,987.447,738.122Z" transform="translate(-962.178 -680.889)"/><path class="q" d="M984.335,746.672s-5.738,6.5-13.625.668C970.71,747.34,976.792,740.913,984.335,746.672Z" transform="translate(-962.098 -681.109)"/><path class="q" d="M981.966,754.837s-5.738,6.506-13.625.668C968.341,755.5,974.422,749.079,981.966,754.837Z" transform="translate(-962.037 -681.32)"/><path class="q" d="M1001.089,711.744s-6.561,5.675-13.592-1.17C987.5,710.574,994.388,705.024,1001.089,711.744Z" transform="translate(-962.531 -680.184)"/><path class="q" d="M1001.634,679.436s5.774,6.475-.964,13.608C1000.67,693.044,995.016,686.239,1001.634,679.436Z" transform="translate(-962.813 -679.436)"/><path class="q" d="M992.2,687.581s6.786,5.4,1.354,13.574C993.557,701.155,986.832,695.4,992.2,687.581Z" transform="translate(-962.599 -679.646)"/><path class="q" d="M984.1,697.291s7.533,4.3,3.415,13.207C987.51,710.5,979.985,705.844,984.1,697.291Z" transform="translate(-962.412 -679.897)"/><path class="q" d="M978.074,708.273s7.532,4.3,3.415,13.207C981.488,721.48,973.964,716.826,978.074,708.273Z" transform="translate(-962.256 -680.18)"/><path class="q" d="M971.706,718.167s8.4,2.179,6.753,11.853C978.459,730.02,969.979,727.5,971.706,718.167Z" transform="translate(-962.118 -680.436)"/><path class="q" d="M967.5,726.293s8.4,2.179,6.754,11.853C974.254,738.146,965.773,735.625,967.5,726.293Z" transform="translate(-962.009 -680.645)"/><path class="q" d="M964.213,734.969s8.4,2.178,6.753,11.852C970.966,746.821,962.486,744.3,964.213,734.969Z" transform="translate(-961.924 -680.869)"/><path class="q" d="M962.1,744.667s8.4,2.179,6.754,11.853C968.856,756.52,960.375,754,962.1,744.667Z" transform="translate(-961.87 -681.119)"/><path class="q" d="M1016.812,681.191s-.84,8.634-10.651,8.524C1006.161,689.715,1007.324,680.944,1016.812,681.191Z" transform="translate(-963.013 -679.481)"/></g><g transform="translate(0 74.478)"><g transform="translate(12.989 13.577)"><path class="q" d="M916.762,804.947l-1.837.066C911.5,695.246,879.656,669.5,879.32,669.257l1.141-1.489C881.809,668.807,913.338,694.318,916.762,804.947Z" transform="translate(-879.32 -667.768)"/></g><path class="q" d="M865.987,674.952s7.737,10.155,19.931,2.42C885.918,677.372,877.67,667.3,865.987,674.952Z" transform="translate(-865.987 -654.302)"/><path class="q" d="M873.945,688.056s7.737,10.155,19.932,2.42C893.877,690.476,885.628,680.4,873.945,688.056Z" transform="translate(-866.192 -654.64)"/><path class="q" d="M884.886,718.07s7.737,10.155,19.931,2.42C904.817,720.49,896.569,710.414,884.886,718.07Z" transform="translate(-866.475 -655.415)"/><path class="q" d="M889.146,730.86s6.3,11.1,19.424,5.078C908.57,735.937,901.751,724.844,889.146,730.86Z" transform="translate(-866.585 -655.773)"/><path class="q" d="M892.69,744.726s6.3,11.1,19.424,5.078C912.115,749.8,905.3,738.71,892.69,744.726Z" transform="translate(-866.676 -656.13)"/><path class="q" d="M894.59,757.981s6.3,11.1,19.424,5.078C914.014,763.058,907.2,751.964,894.59,757.981Z" transform="translate(-866.725 -656.473)"/><path class="q" d="M895.537,770.458s6.3,11.1,19.425,5.077C914.962,775.535,908.142,764.442,895.537,770.458Z" transform="translate(-866.75 -656.794)"/><path class="q" d="M881,702.616s7.737,10.156,19.931,2.42C900.932,705.036,892.684,694.96,881,702.616Z" transform="translate(-866.374 -655.016)"/><path class="q" d="M890.251,655.946s-10.272,7.581-2.723,19.892C887.528,675.838,897.729,667.744,890.251,655.946Z" transform="translate(-866.471 -653.886)"/><path class="q" d="M901.366,670.535s-11.407,5.734-6.051,19.145C895.315,689.68,906.739,683.428,901.366,670.535Z" transform="translate(-866.707 -654.262)"/><path class="q" d="M910.093,686.978s-12.15,3.92-8.909,17.992C901.183,704.971,913.429,700.541,910.093,686.978Z" transform="translate(-866.881 -654.686)"/><path class="q" d="M915.45,704.615s-12.15,3.921-8.908,17.993C906.542,722.608,918.787,718.179,915.45,704.615Z" transform="translate(-867.019 -655.142)"/><path class="q" d="M921.569,720.8s-12.752.6-13.308,15.034C908.261,735.833,921.239,734.763,921.569,720.8Z" transform="translate(-867.078 -655.559)"/><path class="q" d="M925.174,733.774s-12.752.6-13.308,15.034C911.865,748.808,924.843,747.738,925.174,733.774Z" transform="translate(-867.171 -655.894)"/><path class="q" d="M927.289,747.264s-12.753.6-13.309,15.033C913.98,762.3,926.958,761.227,927.289,747.264Z" transform="translate(-867.226 -656.242)"/><path class="q" d="M927.4,761.871s-12.752.6-13.308,15.034C914.09,776.9,927.068,775.835,927.4,761.871Z" transform="translate(-867.228 -656.619)"/><path class="q" d="M867.718,653.831s-1.4,12.69,12.768,15.495C880.486,669.326,881.458,656.341,867.718,653.831Z" transform="translate(-866.031 -653.831)"/></g><g transform="translate(26.431 175.934)"><path class="r" d="M915.142,768.013c0,5.547-4.935,10.035-11,10.035-6.089,0-11.024-4.488-11.024-10.035s4.935-10.039,11.024-10.039C910.206,757.974,915.142,762.456,915.142,768.013Z" transform="translate(-893.118 -757.974)"/></g><g transform="translate(37.157 170.589)"><path class="r" d="M947.617,772.313c0,10.933-9.717,19.819-21.724,19.819-12.024,0-21.765-8.886-21.765-19.819,0-10.963,9.742-19.825,21.765-19.825C937.9,752.488,947.617,761.35,947.617,772.313Z" transform="translate(-904.128 -752.488)"/></g><g transform="translate(70.5 176.355)"><path class="r" d="M959.672,768.105c0,5.386-4.786,9.7-10.68,9.7-5.873,0-10.638-4.313-10.638-9.7,0-5.363,4.765-9.7,10.638-9.7C954.886,758.406,959.672,762.742,959.672,768.105Z" transform="translate(-938.354 -758.406)"/></g><g transform="translate(83.595 176.766)"><path class="r" d="M968.222,766.281c0,4.143-3.7,7.5-8.2,7.5-4.528,0-8.223-3.353-8.223-7.5,0-4.1,3.7-7.453,8.223-7.453C964.527,758.828,968.222,762.18,968.222,766.281Z" transform="translate(-951.796 -758.828)"/></g><g transform="translate(92.802 177.896)"><path class="r" d="M980.128,768.6c0,4.743-4.228,8.607-9.42,8.607-5.232,0-9.46-3.864-9.46-8.607,0-4.762,4.228-8.607,9.46-8.607C975.9,759.988,980.128,763.833,980.128,768.6Z" transform="translate(-961.247 -759.988)"/></g><g transform="translate(31.506 193.96)"><path class="s" d="M904.1,852.414h63.117L973,776.478H898.328Z" transform="translate(-898.328 -776.478)"/></g><g transform="translate(21.99 181.485)"><path class="t" d="M896.486,788.619h77.877l7.926-24.946H888.56Z" transform="translate(-888.56 -763.672)"/></g></g></g></svg>