<svg xmlns="http://www.w3.org/2000/svg" width="52" height="56" viewBox="0 0 52 56"><defs><style>.a{fill:#fab400;}.b{fill:#dc9600;}.c{fill:#be7800;}.d{fill:#fa6450;}.e{fill:#64c8f0;}.f{fill:#46aad2;}.g{fill:#dc4632;}.h{fill:#f0f0f0;}.i{fill:#505050;}</style></defs><g transform="translate(-6 -4)"><path class="a" d="M18,22H46V46H18Z"/><path class="b" d="M18,22h2V46H18Z"/><path class="c" d="M38,38h6v2H38Z"/><path class="c" d="M38,42h6v2H38Z"/><path class="d" d="M28.006,22,28,32l2-2,2,2,2-2,2,2-.006-10Z"/><path class="e" d="M54,20.15V22H50.435A21.992,21.992,0,0,1,16.451,49.549L18,48H12v6l1.619-1.619A25.995,25.995,0,0,0,54,20.15Z"/><path class="f" d="M33,55.975c.331.015.664.025,1,.025A22,22,0,0,0,52.435,22h-2A21.993,21.993,0,0,1,33,55.975Z"/><path class="f" d="M15.619,52.381l-.971.971A25.892,25.892,0,0,0,32,60c.336,0,.668-.013,1-.025a25.906,25.906,0,0,1-17.382-7.594Z"/><path class="f" d="M14,48H12v6l1.619-1.619c.124.124.254.242.381.363Z"/><path class="e" d="M22.224,9.907A25.994,25.994,0,0,0,10,47.85V46h3.565a21.994,21.994,0,0,1,8.7-31.732,9.788,9.788,0,0,1-.045-4.361Z"/><path class="e" d="M50.378,15.622a26.075,26.075,0,0,0-8.6-5.71,9.776,9.776,0,0,1-.047,4.358,22.076,22.076,0,0,1,5.824,4.176L46,20h6V14Z"/><path class="f" d="M6,34a25.872,25.872,0,0,0,4,13.85V46h.947A25.972,25.972,0,0,1,22.063,10.9a9.936,9.936,0,0,1,.161-1A26,26,0,0,0,6,34Z"/><path class="f" d="M41.881,13.461c-.041.28-.092.556-.156.828a22.035,22.035,0,0,1,5.829,4.157L46,20h2l1.555-1.555a22.035,22.035,0,0,0-7.674-4.984Z"/><path class="d" d="M32,20a8,8,0,1,1,8-8A8,8,0,0,1,32,20Z"/><path class="g" d="M26,12a8,8,0,0,1,7-7.931,8,8,0,1,0,0,15.862A8,8,0,0,1,26,12Z"/><circle class="h" cx="6" cy="6" r="6" transform="translate(26 6)"/><path class="i" d="M32.5,12.5H29v-1h2.5V8h1Z"/><path class="d" d="M32,13a1,1,0,1,1,1-1A1,1,0,0,1,32,13Z"/></g></svg>