<svg xmlns="http://www.w3.org/2000/svg" width="77.368" height="74.5" viewBox="0 0 77.368 74.5"><defs><style>.a{fill:#ffdf40;}.b{fill:#ffbe40;}.c{fill:#ff7f40;}.d{fill:#f25a3c;}.e{fill:#f3f5f9;}.f{fill:#e1e6f0;}</style></defs><g transform="translate(0 -9.489)"><g transform="translate(18.133 9.489)"><path class="a" d="M174.4,70.389,156.266,58.3V27.622H120V9.489h59.235V59.355H174.4Z" transform="translate(-120 -9.489)"/></g><path class="b" d="M315,27.622h6.8V58.3l18.133,12.088V59.355h4.835V9.489H315Z" transform="translate(-267.401 0)"/><g transform="translate(0 23.089)"><path class="c" d="M4.533,160.389V149.355H0V99.489H58.932v49.866H21.086Z" transform="translate(0 -99.489)"/></g><path class="d" d="M195,99.489h29.466v49.866H195Z" transform="translate(-165.534 -76.4)"/><g transform="translate(22.666 34.422)"><g transform="translate(4.533 20.4)"><path class="e" d="M180,309.489h4.533v4.533H180Z" transform="translate(-180 -309.489)"/></g><path class="e" d="M163.6,181.289a7.9,7.9,0,0,1-2.947,6.12c-1.088,1.133-1.586,1.677-1.586,2.947h-4.533a7.349,7.349,0,0,1,2.267-5.44l.68-.68c1.088-1.133,1.587-1.677,1.587-2.946a2.267,2.267,0,1,0-4.533,0H150a6.8,6.8,0,1,1,13.6,0Z" transform="translate(-150 -174.489)"/></g><g transform="translate(29.466 34.422)"><path class="f" d="M195,309.489h2.267v4.533H195Z" transform="translate(-195 -289.089)"/><path class="f" d="M201.8,181.289a7.9,7.9,0,0,1-2.947,6.12c-1.088,1.133-1.587,1.677-1.587,2.947H195v-5.44l.68-.68c1.088-1.133,1.586-1.677,1.586-2.946A2.244,2.244,0,0,0,195,179.022v-4.533A6.791,6.791,0,0,1,201.8,181.289Z" transform="translate(-195 -174.489)"/></g></g></svg>