<svg xmlns="http://www.w3.org/2000/svg" width="102" height="102" viewBox="0 0 102 102"><defs><style>.a{fill:#9090fb;}.b{fill:#6c5fea;}.c{fill:#ff6b81;}.d{fill:#fbdf63;}.e{fill:#ffa402;}.f{fill:#ed2061;}.g{fill:#fff;}.h{fill:#56788b;}.i{fill:#415e6f;}</style></defs><g transform="translate(0 18.496)"><path class="a" d="M80.443,100.454v30.2a10.47,10.47,0,0,1-.188,1.977,10.25,10.25,0,0,0-8.187,8.273,10.4,10.4,0,0,1-2.048.2H32.9l-8.982,10.57a1.461,1.461,0,0,1-2.231,0l-8.982-10.57H10.424A10.45,10.45,0,0,1,0,130.653v-30.2A10.45,10.45,0,0,1,10.424,90h59.6A10.45,10.45,0,0,1,80.443,100.454Z" transform="translate(0 -90.001)"/><g transform="translate(66.115)"><path class="b" d="M338.38,341.841a10.351,10.351,0,0,0,6.588-2.36,10.132,10.132,0,0,0-.635,2.157,10.4,10.4,0,0,1-2.048.2Z" transform="translate(-338.38 -290.736)"/><path class="b" d="M352.708,100.454v30.2a10.469,10.469,0,0,1-.188,1.977,10.2,10.2,0,0,0-4.551,2.114,10.414,10.414,0,0,0,.832-4.091v-30.2A10.45,10.45,0,0,0,338.38,90h3.906A10.45,10.45,0,0,1,352.708,100.454Z" transform="translate(-338.38 -90.001)"/></g></g><path class="c" d="M49.552,432.4a6.32,6.32,0,0,1-6.307,6.319H6.306a6.318,6.318,0,0,1,0-12.636h.549l3.3-4.552a1.462,1.462,0,0,1,2.372,0l3.3,4.552H43.246a6.319,6.319,0,0,1,6.307,6.317Z" transform="translate(0 -336.717)"/><path class="d" d="M307.941,6.32a6.319,6.319,0,0,1-6.307,6.317h-3.9l-3.3,4.553a1.462,1.462,0,0,1-2.372,0l-3.294-4.553H264.7A6.318,6.318,0,0,1,264.7,0h36.939a6.32,6.32,0,0,1,6.307,6.319Z" transform="translate(-205.942 -0.001)"/><path class="e" d="M469.949,6.32a6.319,6.319,0,0,1-6.306,6.317h-3.905a6.318,6.318,0,0,0,0-12.636h3.905a6.32,6.32,0,0,1,6.306,6.319Z" transform="translate(-367.949 -0.001)"/><path class="f" d="M211.561,453.648a6.32,6.32,0,0,1-6.307,6.319h-3.9a6.318,6.318,0,0,0,0-12.636h3.9A6.319,6.319,0,0,1,211.561,453.648Z" transform="translate(-161.149 -357.967)"/><g transform="translate(20.653 34.705)"><path class="g" d="M111.636,176.377a1.465,1.465,0,0,0,0-2.931H103.82a1.465,1.465,0,0,0-1.465,1.465v7.815a1.465,1.465,0,0,0,1.465,1.465h6.35v4.885h-6.35a1.465,1.465,0,1,0,0,2.931h7.815a1.465,1.465,0,0,0,1.465-1.465v-7.815a1.465,1.465,0,0,0-1.465-1.465h-6.35v-4.885Z" transform="translate(-102.355 -173.446)"/><path class="g" d="M186.635,176.377a1.465,1.465,0,0,0,0-2.931h-7.815a1.465,1.465,0,0,0-1.465,1.465v15.631a1.465,1.465,0,0,0,1.465,1.465h7.815a1.465,1.465,0,0,0,0-2.931h-6.35v-4.885h6.35a1.465,1.465,0,0,0,0-2.931h-6.35v-4.885Z" transform="translate(-162.7 -173.446)"/><path class="g" d="M261.633,173.446h-7.815a1.465,1.465,0,0,0-1.465,1.465v15.631a1.465,1.465,0,0,0,1.465,1.465h7.815a1.465,1.465,0,0,0,1.465-1.465V174.911A1.465,1.465,0,0,0,261.633,173.446Zm-1.465,15.631h-4.884v-12.7h4.884Z" transform="translate(-223.045 -173.446)"/></g><g transform="translate(66.238 54.365)"><path class="h" d="M364.732,283.159a1.467,1.467,0,0,0-1.237-1.446l-2.022-.32-.963-2.329,1.2-1.659a1.466,1.466,0,0,0-.15-1.9l-4.138-4.138a1.467,1.467,0,0,0-1.9-.149l-1.655,1.2-2.327-.963-.322-2.024a1.465,1.465,0,0,0-1.446-1.235h-2.487l-3.365,0a1.469,1.469,0,0,0-1.448,1.237l-.32,2.024-2.325.965-1.657-1.2a1.467,1.467,0,0,0-1.9.15l-4.136,4.142a1.464,1.464,0,0,0-.148,1.9l1.2,1.657-.963,2.331-2.02.32a1.466,1.466,0,0,0-1.235,1.448l0,5.855a1.467,1.467,0,0,0,1.237,1.446l2.022.32.963,2.329-1.2,1.659a1.466,1.466,0,0,0,.15,1.9l4.138,4.138a1.464,1.464,0,0,0,1.9.148l1.655-1.2,2.329.965.322,2.022a1.465,1.465,0,0,0,1.446,1.235h0l2.929,0h2.921a1.469,1.469,0,0,0,1.448-1.237l.32-2.024,2.325-.965,1.657,1.2a1.466,1.466,0,0,0,1.9-.15l4.136-4.142a1.464,1.464,0,0,0,.149-1.9l-1.2-1.657.963-2.329,2.02-.322a1.466,1.466,0,0,0,1.235-1.448Zm-17.88,10.75a7.815,7.815,0,1,1,7.815-7.815A7.816,7.816,0,0,1,346.852,293.909Z" transform="translate(-328.972 -268.203)"/><path class="i" d="M438.412,289.015a1.466,1.466,0,0,1-1.235,1.448l-2.02.322-.963,2.329,1.2,1.657a1.464,1.464,0,0,1-.148,1.9l-4.136,4.142a1.467,1.467,0,0,1-1.9.15l-1.657-1.2-2.325.965-.32,2.024a1.469,1.469,0,0,1-1.448,1.237h-2.921l1.293-6.082,6.245-2.593,1.741,1.264,1.188-1.192-1.262-1.739,2.634-6.371,2.124-.338,0-1.686-2.124-.336-2.638-6.369L431,276.8l-1.19-1.19-1.739,1.262-6.508-2.694-.6-5.975h2.487a1.465,1.465,0,0,1,1.446,1.235l.322,2.024,2.327.963,1.655-1.2a1.467,1.467,0,0,1,1.9.148l4.138,4.138a1.466,1.466,0,0,1,.15,1.9l-1.2,1.659.963,2.329,2.022.32a1.467,1.467,0,0,1,1.237,1.446Z" transform="translate(-402.65 -268.204)"/></g></svg>