<svg xmlns="http://www.w3.org/2000/svg" width="914.624" height="723.167" viewBox="0 0 914.624 723.167"><defs><style>.a{fill:#f4dd7d;}.b{fill:#f7cc7f;}.c{fill:#50bfa5;}.d{fill:#07345a;}.e{fill:#f47458;}.f{fill:#355389;}.g{fill:#5184ce;}.h{fill:#1f5b9b;}.i,.j{fill:#184655;}.i,.n{opacity:0.3;mix-blend-mode:multiply;isolation:isolate;}.k{fill:#c1d3fb;}.l{fill:#e9ffff;}.m,.n{fill:#9bc1f9;}.m{opacity:0.6;}.o{fill:#f9b5a0;}.p{fill:#595959;}.q{fill:#1d1b3a;}.r{fill:#ed7000;}.s{fill:#ff8000;}.t{fill:#f7b2a0;}.u{fill:#fbc6b4;}</style></defs><g transform="translate(97.279 -9)"><circle class="a" cx="291.19" cy="291.19" r="291.19" transform="translate(52.239 76.338)"/><g transform="translate(-97.279 99.331)"><g transform="translate(583.525)"><path class="b" d="M717.137,279.49A99.857,99.857,0,1,0,838.512,207.3,99.97,99.97,0,0,0,717.137,279.49Zm24.663,2.894h0a75.311,75.311,0,0,1,93.818-50.416h0a75.311,75.311,0,0,1,50.415,93.818h0A75.311,75.311,0,0,1,792.216,376.2h0A75.312,75.312,0,0,1,741.8,282.384Z" transform="translate(-647.942 -138.238)"/><path class="b" d="M631.488,263.223c.47,2.384,2.629,3.217,7.955,5.33,9.528,3.779,19.062,7.56,28.45,11.669a6.62,6.62,0,0,1,3.137,4.627c1.086,9.975,1.568,20.018,2.754,29.979.368,3.087.067,4.727-2.707,6.47-11.088,6.968-21.982,14.245-32.826,21.33,2.712,11.629,16.37,37.767,23.671,45.077,11.5-4.839,23.328-9.605,34.948-14.828,3.617-1.625,5.465-1.313,8.479,1.569a262.788,262.788,0,0,0,22.32,18.629c3.12,2.38,4.781,4.247,3.771,8.535-2.621,11.117-4.566,22.392-7,33.556-.653,3-.083,4.876,2.88,5.793q20.906,6.473,41.818,12.921c3.427,1.059,3.955-1.758,4.811-3.776,4.329-10.212,8.717-20.407,12.7-30.754,1.5-3.886,3.5-5.165,7.722-5.3,11.171-.35,22.318-1.428,34.332-2.278l23.018,34.946A149.556,149.556,0,0,0,896.3,422.717l-15.76-37.867c8.271-10.476,16.145-20.01,23.44-29.969,2.112-2.883,3.766-3.357,6.936-2.661,11,2.416,22.07,4.489,33.085,6.828,2.381.506,4.128.6,5.348-2,6.163-13.146,11.136-26.634,13.143-41.13.447-3.232-.713-4.507-3.374-5.607-10.716-4.426-21.346-9.057-32.079-13.438-2.6-1.062-3.688-2.164-3.924-5.336-.819-11-2.114-21.982-3.686-32.9-.4-2.79.485-3.875,2.448-5.169,10.941-7.206,21.829-14.493,33.015-21.938-5.676-15.934-12.915-30.725-23.284-44.324l-39.463,16.423-32.259-26.757c1.971-9.835,4.324-21.149,6.486-32.5,1.774-9.316,3.109-8.09-6.25-12.019a15.805,15.805,0,0,1-2.47-1.621l-25.112-7.557a31.181,31.181,0,0,1-5.852-.724c-4.792-1.519-7.49-.429-9.4,4.7-3.979,10.694-8.63,21.145-13.255,31.585a6.068,6.068,0,0,1-4.1,2.983c-9.8,1.24-19.724,1.633-29.416,3.378-4.743.855-6.738-.441-9.078-4.138-6.636-10.486-13.7-20.7-21.3-32.055l-44.474,23.352c1.163,2.951,1.806,4.661,2.507,6.346,4.327,10.391,8.56,20.824,13.071,31.135,1.282,2.927.629,4.574-1.375,6.956-6.888,8.185-13.248,16.812-20.082,25.044a6.686,6.686,0,0,1-5.339,1.885c-9.1-1.58-18.105-3.663-27.173-5.425-7.336-1.426-10.065-1.93-12.388.466Zm65.765-1.026A103.4,103.4,0,1,1,708.6,340.515,102.72,102.72,0,0,1,697.253,262.2Z" transform="translate(-631.488 -121.815)"/></g><path class="c" d="M-77.92,420.237c1.539,1.2,3.287.572,7.633-.946,7.772-2.714,15.549-5.43,23.409-7.869a5.314,5.314,0,0,1,4.337,1.16c5.9,5.486,11.476,11.332,17.432,16.756,1.846,1.681,2.527,2.835,1.758,5.352-3.07,10.06-5.859,20.206-8.72,30.21C-24.31,470.536-2.276,479.228,6,479.828c4.44-8.985,9.115-18.1,13.426-27.376,1.342-2.888,2.629-3.67,5.973-3.505a210.793,210.793,0,0,0,23.347-.421c3.146-.194,5.136.066,6.776,3.2,4.253,8.128,9,16,13.391,24.054,1.18,2.166,2.513,3.005,4.795,2q16.1-7.061,32.186-14.139c2.638-1.158,1.477-3.146.935-4.822-2.739-8.477-5.434-16.973-8.454-25.352-1.135-3.145-.589-4.976,1.9-7.275,6.6-6.085,12.8-12.6,19.65-19.431l32.348,9.12a120.114,120.114,0,0,0,14.45-38.012l-29.476-14.709c-.485-10.709-.715-20.638-1.521-30.52-.234-2.861.522-4.019,2.812-5.261,7.948-4.315,15.761-8.877,23.68-13.247,1.712-.945,2.821-1.807,2.194-4.028-3.168-11.223-7.238-22.027-13.641-31.886-1.427-2.2-2.8-2.362-5-1.63-8.833,2.946-17.723,5.722-26.543,8.7-2.137.722-3.377.625-5.189-1.177-6.28-6.249-12.838-12.236-19.535-18.041-1.711-1.483-1.743-2.608-1.231-4.425,2.855-10.127,5.636-20.276,8.515-30.677C89.975,224.285,77.8,219.109,64.358,216.3L49.028,247.02l-33.654.71c-3.973-7.008-8.492-15.116-13.147-23.144-3.82-6.59-2.365-6.547-10.113-4.013a12.551,12.551,0,0,1-2.352.314L-29.459,229.5a25,25,0,0,1-3.934,2.636c-3.709,1.6-4.775,3.678-3.236,7.8,3.206,8.585,5.876,17.376,8.555,26.148a4.873,4.873,0,0,1-.92,3.965c-5.3,5.9-11.119,11.361-16.086,17.516-2.431,3.011-4.324,3.273-7.688,2.259-9.543-2.879-19.2-5.364-29.783-8.27-4.973,12.681-9.825,25.05-14.73,37.559,2.258,1.181,3.546,1.882,4.859,2.536,8.09,4.035,16.145,8.146,24.3,12.035,2.317,1.1,2.786,2.447,2.821,4.947.121,8.591.793,17.173.973,25.765a5.376,5.376,0,0,1-2.252,3.951c-6.355,3.823-12.92,7.293-19.352,10.99-5.2,2.991-7.126,4.12-7.278,6.8Zm39.4-35.2A83.044,83.044,0,0,1-1.5,273.587a82.5,82.5,0,0,1,63.395-4.572A83.044,83.044,0,0,1,9.535,426.635,82.5,82.5,0,0,1-38.525,385.042Z" transform="translate(97.279 -140.646)"/><path class="c" d="M399.961,154.814l3.158-5.8-2.972-5.9a.908.908,0,0,1,.976-1.3l6.474,1.22,4.674-4.657a.9.9,0,0,1,1.536.528l.843,6.553,5.861,3.019a.909.909,0,0,1-.026,1.629l-5.953,2.829-1.052,6.523a.9.9,0,0,1-1.552.479l-4.523-4.8-6.511,1.012A.907.907,0,0,1,399.961,154.814Z" transform="translate(-1.798 -125.064)"/><path class="d" d="M477.419,217.2l2.7-4.381-2.166-.878a.926.926,0,0,1-.51-1.207h0a.926.926,0,0,1,1.206-.51l2.5,1.013,2.411-3.934-2.313-.938a.927.927,0,0,1-.51-1.207h0a.927.927,0,0,1,1.207-.51l2.645,1.073,2.8-4.5a.926.926,0,0,1,1.135-.369l.4.163a.927.927,0,0,1,.441,1.342l-2.6,4.251,3.835,1.555,2.8-4.5a.927.927,0,0,1,1.135-.369l.44.179a.926.926,0,0,1,.442,1.342l-2.6,4.251,2.166.878a.926.926,0,0,1,.51,1.206h0a.926.926,0,0,1-1.206.51l-2.5-1.013L489.4,214.59l2.313.938a.927.927,0,0,1,.51,1.207h0a.926.926,0,0,1-1.207.51l-2.645-1.073-2.86,4.646a.927.927,0,0,1-1.137.373l-.472-.192a.926.926,0,0,1-.441-1.344l2.7-4.38-3.835-1.556-2.861,4.646a.925.925,0,0,1-1.136.372l-.472-.191A.926.926,0,0,1,477.419,217.2Zm9.773-3.509,2.412-3.934-3.835-1.555-2.411,3.934Z" transform="translate(-17.23 -137.553)"/><path class="e" d="M454.931,304.355l-3.651,19.406c.306.986,1.254,1.24,3.6,1.891,4.192,1.166,8.384,2.332,12.53,3.643a2.811,2.811,0,0,1,1.533,1.811c.906,4.16,1.562,8.376,2.512,12.525.294,1.287.241,1.993-.85,2.853-4.365,3.439-8.635,7-12.892,10.479,1.669,4.785,8.608,15.2,12.019,17.955,4.635-2.56,9.411-5.1,14.079-7.831,1.453-.849,2.248-.8,3.649.28a111.634,111.634,0,0,0,10.257,6.856c1.424.864,2.209,1.577,1.975,3.432-.6,4.809-.918,9.654-1.441,14.474-.141,1.3.184,2.062,1.476,2.315q9.112,1.79,18.228,3.569c1.493.293,1.589-.919,1.859-1.81,1.368-4.5,2.76-9,3.975-13.549a3.044,3.044,0,0,1,3.02-2.583c4.7-.651,9.353-1.608,14.385-2.507l11.286,13.71A63.45,63.45,0,0,0,570.2,379.137l-8.355-15.269c3.018-4.793,5.912-9.17,8.541-13.7a2.392,2.392,0,0,1,2.806-1.435c4.749.524,9.515.9,14.268,1.391,1.027.107,1.769.066,2.166-1.086a60.71,60.71,0,0,0,3.694-17.947,1.908,1.908,0,0,0-1.677-2.214c-4.72-1.385-9.415-2.861-14.141-4.226a2.216,2.216,0,0,1-1.9-2.075c-.841-4.606-1.882-9.18-3.037-13.718a1.883,1.883,0,0,1,.8-2.291c4.292-3.533,8.558-7.1,12.943-10.744a68.08,68.08,0,0,0-11.82-17.655l-15.912,8.707-14.817-9.838c.389-4.238.872-9.118,1.273-14.005.329-4.012.948-3.554-3.178-4.791a6.709,6.709,0,0,1-1.115-.572l-10.937-2.058a13.21,13.21,0,0,1-2.5-.042c-2.091-.425-3.18.156-3.755,2.408-1.2,4.692-2.69,9.311-4.171,13.925a2.575,2.575,0,0,1-1.6,1.443c-4.077.964-8.25,1.577-12.26,2.75-1.963.574-2.863.117-4.016-1.337-3.273-4.126-6.715-8.117-10.43-12.568l-17.715,11.857c.624,1.193.971,1.886,1.344,2.565,2.294,4.19,4.55,8.4,6.918,12.549a2.4,2.4,0,0,1-.268,3c-2.537,3.764-4.833,7.691-7.345,11.472a2.84,2.84,0,0,1-2.168,1.035c-3.91-.257-7.8-.73-11.71-1.066C456.979,303.329,455.8,303.239,454.931,304.355Zm36.076,16.335a31.96,31.96,0,0,1,37.318-25.5h0a31.958,31.958,0,0,1,25.5,37.317h0a31.958,31.958,0,0,1-37.317,25.5h0a31.959,31.959,0,0,1-25.5-37.317Z" transform="translate(-12.048 -148.446)"/><path class="f" d="M297.377,181.794l11.49,1.386-4.9-8.921Z" transform="translate(18.625 -132.267)"/><g transform="translate(358.177 141.556)"><path class="e" d="M350.076,305.609c-.359,3.882,2.979,7.431,6.681,8.079,3.835.671,7.252-1.828,8.572-5.362,2.6-6.969-5.024-12.466-9.159-8.249-3.86,3.936-2.64,9.785,1.528,9.787,1.572,0,4.1-1.317,3.1-3.224a.636.636,0,0,0-1.091,0c-.506.862-.465.892-.7,1.084a2.142,2.142,0,0,1-1.365.395c-4.244-.073-1.422-9.782,3.581-7.431,2.746,1.292,3.557,4.416,2.6,7.141a6.394,6.394,0,0,1-6.228,4.477,7.317,7.317,0,0,1-6.475-6.7.52.52,0,0,0-1.04,0Z" transform="translate(-350.05 -298.606)"/></g><rect class="g" width="85.1" height="43.354" rx="21.556" transform="translate(397.932 168.449)"/><path class="h" d="M372.52,865.927l-65.76,30.31v6.714H540.953v-6.714L474.6,865.927Z" transform="translate(16.755 -270.116)"/><rect class="h" width="102.121" height="129.973" transform="translate(389.274 465.894)"/><path class="h" d="M684.593,675.368V382.283a25.215,25.215,0,0,0-25.215-25.215H91.112A25.215,25.215,0,0,0,65.9,382.283V675.368Z" transform="translate(64.758 -168.701)"/><rect class="i" width="102.08" height="15.252" transform="translate(389.274 580.56)"/><path class="h" d="M65.9,754.595v46.966c0,9.769,6.458,17.688,14.423,17.688H670.17c7.965,0,14.423-7.92,14.423-17.688V754.595Z" transform="translate(64.758 -247.927)"/><path class="j" d="M457.776,345.143a5.744,5.744,0,1,1-5.744-5.744A5.744,5.744,0,0,1,457.776,345.143Z" transform="translate(-11.053 -165.179)"/><path class="k" d="M673.715,665.808V386.233a13.514,13.514,0,0,0-13.747-13.269H97.732a13.515,13.515,0,0,0-13.748,13.269V665.808Z" transform="translate(61.154 -171.869)"/><rect class="l" width="354.457" height="247.332" transform="translate(171.036 223.664)"/><rect class="g" width="354.457" height="28.958" transform="translate(171.036 223.664)"/><rect class="m" width="24.195" height="187.274" transform="translate(651.635 285.543)"/><rect class="m" width="24.195" height="130.151" transform="translate(617.846 342.666)"/><rect class="m" width="24.195" height="146.699" transform="translate(685.91 326.117)"/><rect class="m" width="24.194" height="152.468" transform="translate(584.057 320.348)"/><rect class="m" width="24.195" height="107.262" transform="translate(550.267 365.554)"/><g transform="translate(550.267 328.704)"><rect class="n" width="24.195" height="144.113" transform="translate(101.367)"/><rect class="n" width="24.195" height="100.155" transform="translate(67.578 43.958)"/><rect class="n" width="24.195" height="112.889" transform="translate(135.643 31.223)"/><rect class="n" width="24.194" height="117.329" transform="translate(33.789 26.784)"/><rect class="n" width="24.195" height="82.541" transform="translate(0 61.571)"/></g><rect class="m" width="327.164" height="41.992" transform="translate(183.265 264.547)"/><rect class="m" width="210.575" height="10.763" transform="translate(299.854 318.464)"/><rect class="g" width="103.591" height="124.205" transform="translate(183.265 318.464)"/><rect class="m" width="210.575" height="10.763" transform="translate(299.854 341.153)"/><rect class="m" width="210.575" height="10.763" transform="translate(299.854 409.218)"/><rect class="m" width="210.575" height="10.763" transform="translate(299.854 431.906)"/><rect class="m" width="51.037" height="51.036" transform="translate(553.885 223.639)"/><rect class="m" width="99.563" height="6.935" transform="translate(613.951 223.639)"/><rect class="m" width="67.191" height="6.935" transform="translate(613.951 238.339)"/><rect class="m" width="89.433" height="6.935" transform="translate(613.951 253.04)"/></g><g transform="translate(568.173 9)"><g transform="translate(0 81.66)"><g transform="translate(18.072 52.303)"><path class="o" d="M760.465,197.589c8.946,11.536,24.21,25.007,28.857,33.571.749,1.36.784,1.959-3.44,5.181s1.519,4.082,9.756.785c8.219-3.31-12.414-39.313-24-55.449C761.519,167.573,750.106,184.211,760.465,197.589Z" transform="translate(-756.378 -176.306)"/><g transform="translate(25.538 55.654)"><path d="M803.939,245.812s-5.992,5.723-11.7,4.381c0,0-7.66,4.206-1.69,4.363S807.118,252.721,803.939,245.812Z" transform="translate(-788.273 -245.812)"/></g></g><path class="p" d="M792.51,110.985s-57.547,21.643-58.683,38.525c-1,15.183,37.738,58.433,37.738,58.433s10.385.579,17.117-7c0,0-21.854-27.3-17.069-36.054,5.718-10.464,47.281-6.122,47.281-6.122L802.039,134.52Z" transform="translate(-733.807 -110.985)"/></g><g transform="translate(58.7 143.523)"><path class="o" d="M811.94,209.678c9.648,10.965,25.725,23.441,30.921,31.712.824,1.288.9,1.889-3.114,5.365-3.992,3.473,1.771,4,9.767.178,8.014-3.829-14.857-38.446-27.421-53.814C811.094,179.668,800.75,197,811.94,209.678Z" transform="translate(-807.118 -188.246)"/><g transform="translate(28.883 53.404)"><path d="M858.339,254.942s-5.646,6.107-11.4,5.105c0,0-7.386,4.7-1.415,4.469S861.95,261.643,858.339,254.942Z" transform="translate(-843.19 -254.942)"/></g></g><g transform="translate(39.194 90.555)"><path class="p" d="M819.621,122.094s-36.784,23.9-36.864,40.818c-.021,15.213,41.357,55.938,41.357,55.938s10.409-.078,16.647-8.081c0,0-22.959-28.29-19.905-38.748,2.139-7.3,18.807-10.941,20.9-22.114,4.943-26.552-12.823-21.1-12.823-21.1Z" transform="translate(-782.757 -122.094)"/></g><g transform="translate(51.481 89.441)"><path class="q" d="M798.1,120.7s26.97,18.556,46.637,10.862c0,0,1.955,7.178,1.062,10.238C845.8,141.8,811.6,142.892,798.1,120.7Z" transform="translate(-798.102 -120.703)"/></g><g transform="translate(29.859 30.386)"><path class="r" d="M795.384,47.372s12.059,1.959,9.678,19.99-5.916,25.554-5.916,25.554-11.756,1.974-28.048-7.1C771.1,85.815,778.8,42.222,795.384,47.372Z" transform="translate(-771.098 -46.949)"/></g><g transform="translate(38.453 27.787)"><path class="s" d="M843.361,118.926c0-.006.046-.03.058-.034s-.051,0-.058.034c-.173-.423-.3-.823-.471-1.27h0c-5.4-16.955-9.5-27.6-5.7-45.457,5.467-25.6-12.031-27.068-22.69-28.228s-28.113.613-31.489,21.368c-2.433,14.964-1.237,35.189,4.927,49.386C794.935,130.831,851.992,137.209,843.361,118.926Z" transform="translate(-781.831 -43.704)"/></g><g transform="translate(37.092)"><g transform="translate(13.42 16.809)"><path class="t" d="M806.268,29.992s.054,9.309,7.354,10.79C821.1,42.3,805.185,63.8,803.6,59.134c-2.067-6.053-.745-10.857-6.7-16.1Z" transform="translate(-796.892 -29.992)"/></g><g transform="translate(3.046 2.33)"><path class="u" d="M784.729,17.759c-2.682,6.921,1.725,29.63,8.97,31.654,3.165.836,11.312-5.733,12.863-17.374.639-4.77.335-13.016-6.656-18.133C796.736,11.586,787.831,9.718,784.729,17.759Z" transform="translate(-783.936 -11.91)"/></g><path class="q" d="M780.141,22c.143,3.047.738,3.488,8.925.987,8.18-2.481,9.249-3.6,9.335-1.416.28,6.427,5.208,2.779,5.482,10.488.263,7.694,4.788.766,5.124-5.8.054-1.324.79-7.96-6.692-14.121C793.552,4.983,779.7,10.806,780.141,22Z" transform="translate(-780.131 -9)"/></g><g transform="translate(52.739 31.354)"><g transform="translate(0 6.458)"><path class="t" d="M841.283,59.847c-.914-2.341-6.764-4.631-13.7-3.159-9.3,2.007-3.45,23.757-3.45,36.879,0,5.863-25.4,17.751-24.429,22.475,1.135,5.511,27.349-1.943,33.223-7.817C845.138,96.01,846.63,73.678,841.283,59.847Z" transform="translate(-799.673 -56.223)"/></g><g transform="translate(21.277)"><path class="r" d="M837.244,48.192s9.825-1.454,12.7,14.453,0,23.452,0,23.452-6.57,4.486-22.815,1.227C827.13,87.323,821.817,48.337,837.244,48.192Z" transform="translate(-826.246 -48.158)"/></g></g><g transform="translate(28.224 69.663)"><path class="u" d="M771.46,96s-3.209,8.122-2.213,11.8,15.707.585,15.707.585-4.266-5.54-4.58-8.4S771.46,96,771.46,96Z" transform="translate(-769.056 -96.002)"/></g><g transform="translate(26.798 72.243)"><path class="u" d="M781.772,106.817c6.145,12.5,13.843,12.244,16.6,15.683s1.36,1.095,2.75,3.448c1.384,2.323,2.066,4.984-3.6,1.5-2.706-1.682-35.526-12.635-29.508-28.22C768.01,99.224,780.024,103.287,781.772,106.817Z" transform="translate(-767.275 -99.224)"/></g></g><g transform="translate(561.333 79.476)"><g transform="translate(9.213 41.199)"><rect class="q" width="89.876" height="5.316"/></g><path class="q" d="M798.668,143.52h-64l-9.406-46.5h60.782Z" transform="translate(-725.265 -97.017)"/></g><g transform="translate(436.088 142.493)"><path class="h" d="M576.071,183.038l5.366,2.3s8.961-2,9.962-3.683,1.586-5.937,2.838-5.94a3.826,3.826,0,0,1,3.961,3.6c.246,2.163-3.388,8.013-2.949,8.712.274.437,3.321,1.849,5.564,2.844a4.341,4.341,0,0,1,2.569,3.689v.006a2.313,2.313,0,0,1-1.678,2.378l-1.634.46.377,1.666a2.315,2.315,0,0,1-1.727,2.765l-1.258.294.312,1.023A2.313,2.313,0,0,1,596,206.106l-1.1.211.022.287A2.312,2.312,0,0,1,593,209.06l-1.086.179-14.293-6.14a10.7,10.7,0,0,1-3.549-2.479l-4.671-2.993a1.21,1.21,0,0,1-.452-1.509l5.548-12.461A1.2,1.2,0,0,1,576.071,183.038Z" transform="translate(-568.846 -175.72)"/></g></g></svg>