<svg xmlns="http://www.w3.org/2000/svg" width="102.084" height="109" viewBox="0 0 102.084 109"><defs><style>.a{fill:#f7f3f1;}.b{fill:#efe7e3;}.c{fill:#ffd36c;}.d{fill:#8ee6f3;}.e{fill:#72d1fb;}.f{fill:#62a6fd;}.g{fill:#fa9084;}.h{fill:#ff6cb5;}</style></defs><g transform="translate(-15.767)"><path class="a" d="M213.737,52.611a9.778,9.778,0,0,0,5.747,1.855h18.364v8.9l11.641-8.9h5.022a9.787,9.787,0,0,0,9.8-9.772V9.772A9.787,9.787,0,0,0,254.511,0H219.483a9.787,9.787,0,0,0-9.8,9.772V52.611Z" transform="translate(-146.462 0)"/><path class="b" d="M366.348,0h-8.4a9.788,9.788,0,0,1,9.8,9.772V44.693a9.787,9.787,0,0,1-9.8,9.772H352.93l-3.245,2.482V63.37l11.641-8.9h5.022a9.787,9.787,0,0,0,9.8-9.772V9.772A9.787,9.787,0,0,0,366.348,0Z" transform="translate(-258.299)"/><path class="c" d="M299.595,84.182l1.01.818a9,9,0,0,0,5.661,2H320.61A2.393,2.393,0,0,0,323,84.5c-.061-1.287,0-13.006,0-14.327a2.393,2.393,0,0,0-2.393-2.393l-9.726-.029,1.191-2.82a10.205,10.205,0,0,0-.541-9.033,1.605,1.605,0,0,0-2.974.79,10.38,10.38,0,0,1-2.6,6.868l-6.2,7.018H297.5V84.182h2.095Z" transform="translate(-216.613 -44.041)"/><path class="d" d="M273.988,137.745H267.44a.784.784,0,0,1-.784-.784V120.268a.784.784,0,0,1,.784-.784h6.548a.784.784,0,0,1,.784.784v16.693A.784.784,0,0,1,273.988,137.745Z" transform="translate(-195.433 -92.795)"/><path class="e" d="M58.85,177.951V142.706A7.718,7.718,0,0,0,51.119,135H23.5a7.718,7.718,0,0,0-7.73,7.706v27.538a7.718,7.718,0,0,0,7.73,7.706H38.672v7.088l9.18-7.088Z" transform="translate(0 -102.941)"/><path class="f" d="M148.024,135H137.078a7.718,7.718,0,0,1,7.73,7.706v35.244h10.946V142.706A7.719,7.719,0,0,0,148.024,135Z" transform="translate(-94.158 -103.549)"/><path class="a" d="M86.951,199.658H81.4L82,195.978h4.947a1.51,1.51,0,0,0,0-3.018H82.5l.831-5.025a1.51,1.51,0,0,0-2.977-.492l-.912,5.518H75.8l.831-5.025a1.51,1.51,0,0,0-2.977-.492l-.912,5.518H66.692a1.51,1.51,0,0,0,0,3.018h5.555l-.609,3.681H66.692a1.51,1.51,0,0,0,0,3.018h4.448l-.831,5.025a1.51,1.51,0,0,0,2.977.492l.912-5.518h3.64l-.831,5.025a1.51,1.51,0,0,0,2.977.492l.912-5.518h6.054a1.51,1.51,0,0,0,0-3.018Zm-8.614,0H74.7l.609-3.681h3.64Z" transform="translate(-39.513 -144.363)"/><path class="g" d="M204.622,320.5h-19.6a5.477,5.477,0,0,0-5.486,5.469v19.542a5.477,5.477,0,0,0,5.486,5.469h10.769v5.03l6.515-5.03h2.319a5.477,5.477,0,0,0,5.486-5.469V325.967A5.478,5.478,0,0,0,204.622,320.5Z" transform="translate(-126.411 -247.008)"/><path class="h" d="M269.16,320.5h-8.45a5.477,5.477,0,0,1,5.486,5.469v19.542a5.477,5.477,0,0,1-5.486,5.469h-.384v5.03l6.515-5.03h2.319a5.477,5.477,0,0,0,5.486-5.469V325.967A5.477,5.477,0,0,0,269.16,320.5Z" transform="translate(-190.123 -247.008)"/><path class="a" d="M227.085,380.695c4.717-2.5,7.161-4.628,7.161-7.925,0-4.547-5.57-5.683-7.161-2.273-1.819-3.524-7.161-2.273-7.161,2.273C219.924,376.066,222.368,378.194,227.085,380.695Z" transform="translate(-158.714 -285.324)"/></g></svg>