<svg xmlns="http://www.w3.org/2000/svg" width="350" height="350" viewBox="0 0 350 350"><defs><style>.a{fill:#45d987;}.b{fill:#f78e36;}.c{fill:#f86f1b;}.d{fill:#4380a0;}.e{fill:#7be492;}.f{fill:#43809f;}.g{fill:#3a7190;}.h{fill:#f3f3f3;}.i{fill:#e4e4e4;}.j{fill:#29cef6;}.k{fill:#22b5ed;}</style></defs><g transform="translate(94.572 100.024)"><path class="a" d="M227.871,387.616a5.468,5.468,0,0,0-5.469,5.469v41.88a5.469,5.469,0,0,0,10.938,0v-41.88A5.468,5.468,0,0,0,227.871,387.616Z" transform="translate(-178.14 -228.337)"/><path class="a" d="M167.169,387.616a5.468,5.468,0,0,0-5.469,5.469v41.88a5.469,5.469,0,0,0,10.938,0v-41.88A5.468,5.468,0,0,0,167.169,387.616Z" transform="translate(-161.7 -228.337)"/><path class="a" d="M197.521,391.224a5.468,5.468,0,0,0-5.469,5.469v65.742a5.469,5.469,0,0,0,10.938,0V396.693A5.469,5.469,0,0,0,197.521,391.224Z" transform="translate(-169.92 -229.314)"/><path class="a" d="M394.916,180.113H436.8a5.469,5.469,0,0,0,0-10.937h-41.88a5.469,5.469,0,0,0,0,10.938Z" transform="translate(-223.381 -169.176)"/><path class="a" d="M436.8,229.878h-41.88a5.469,5.469,0,1,0,0,10.938H436.8a5.469,5.469,0,0,0,0-10.937Z" transform="translate(-223.381 -185.616)"/><path class="a" d="M464.27,199.526H397.215a5.469,5.469,0,0,0,0,10.938H464.27a5.469,5.469,0,0,0,0-10.937Z" transform="translate(-224.004 -177.396)"/></g><path class="b" d="M437.978,469.847l-75.425-75.425a4.507,4.507,0,0,1,0-6.374l25.5-25.5a4.507,4.507,0,0,1,6.374,0l75.425,75.425a4.507,4.507,0,0,1,0,6.374l-25.5,25.5A4.508,4.508,0,0,1,437.978,469.847Z" transform="translate(-121.168 -121.167)"/><path class="c" d="M392.09,362.553l-15.934,15.934a4.507,4.507,0,0,1,6.374,0l75.425,75.425a4.506,4.506,0,0,1,0,6.374l15.935-15.934a4.507,4.507,0,0,0,0-6.374l-75.425-75.425A4.507,4.507,0,0,0,392.09,362.553Z" transform="translate(-125.209 -121.167)"/><path class="d" d="M0,0H22.535V49.118H0Z" transform="translate(217.743 233.727) rotate(-45)"/><path class="e" d="M0,0H45.071V22.535H0Z" transform="translate(255.4 287.329) rotate(-45)"/><path class="a" d="M0,0H22.535V22.535H0Z" transform="translate(271.333 275.68) rotate(-45)"/><circle class="f" cx="146.479" cy="146.479" r="146.479" transform="translate(0 0)"/><path class="g" d="M196.7,0q-5.686,0-11.268.427a146.487,146.487,0,0,1,0,292.1q5.578.424,11.268.427A146.479,146.479,0,0,0,196.7,0Z" transform="translate(-64.855 0)"/><circle class="h" cx="123.944" cy="123.944" r="123.944" transform="translate(22.535 22.535)"/><path class="i" d="M196.7,30.9c-3.8,0-7.555.182-11.268.518A124.108,124.108,0,0,1,298.108,154.849c0,64.544-49.594,117.714-112.676,123.426,3.713.336,7.469.518,11.268.518a123.944,123.944,0,1,0,0-247.888Z" transform="translate(-63.471 -8.37)"/><g transform="translate(72.838 51.455)"><path class="j" d="M155.815,178.822H110.744v-66.1a3,3,0,0,1,3-3H152.81a3,3,0,0,1,3,3Z" transform="translate(-110.744 -81.169)"/><path class="k" d="M141.65,109.714v69.108h22.535v-66.1a3,3,0,0,0-3-3Z" transform="translate(-119.114 -81.169)"/><path class="e" d="M279.437,189.425H234.366V151.866a3,3,0,0,1,3-3h39.061a3,3,0,0,1,3,3Z" transform="translate(-144.225 -91.772)"/><path class="a" d="M265.272,148.861v40.564h22.535V151.866a3,3,0,0,0-3-3Z" transform="translate(-152.595 -91.772)"/><path class="b" d="M217.626,168.22H172.555V73.572a3,3,0,0,1,3-3h39.061a3,3,0,0,1,3,3Z" transform="translate(-127.484 -70.567)"/><path class="c" d="M203.461,70.567V168.22H226V73.572a3,3,0,0,0-3-3Z" transform="translate(-135.855 -70.567)"/></g><path class="f" d="M252.206,196.991H90.646a5.469,5.469,0,0,0,0,10.938h161.56a5.469,5.469,0,0,0,0-10.937Z" transform="translate(-30.285 -62.6)"/><path class="j" d="M241.606,265.144H214.971l-12.09-30.906a5.469,5.469,0,0,0-10.221.091l-16.624,44.828-11.659-33.047a5.469,5.469,0,0,0-9.933-.847l-11.1,19.88h-26.55a5.469,5.469,0,0,0,0,10.938h29.759a5.47,5.47,0,0,0,4.775-2.8l6.76-12.109,12.66,35.882a5.468,5.468,0,0,0,5.114,3.649h.044a5.469,5.469,0,0,0,5.127-3.568l16.889-45.542,8.22,21.014a5.469,5.469,0,0,0,5.092,3.477H241.6a5.468,5.468,0,0,0,0-10.937Z" transform="translate(-38.123 -75.439)"/></svg>