<svg xmlns="http://www.w3.org/2000/svg" width="347.2" height="336" viewBox="0 0 347.2 336"><defs><style>.a{fill:#48cfad;}.b{fill:#37bc9b;}.c{fill:#f7c292;}.d{fill:#ffd2a6;}.e{fill:#656d78;}.f{fill:#434a54;}.g{fill:#ed5565;}.h{fill:#f5f7fa;}.i{fill:#ccd1d9;}</style></defs><path class="a" d="M340.8,35.2V248H16V35.2A11.162,11.162,0,0,1,27.2,24H329.6A11.162,11.162,0,0,1,340.8,35.2Zm0,0" transform="translate(-4.8 -7.2)"/><path class="b" d="M454.4,24H432a11.162,11.162,0,0,1,11.2,11.2V248h22.4V35.2A11.162,11.162,0,0,0,454.4,24Zm0,0" transform="translate(-129.6 -7.2)"/><path class="c" d="M180.311,416h91.169l5.991,16.8H174.321Zm0,0" transform="translate(-52.296 -124.8)"/><path class="d" d="M176,368l-11.985,33.6-5.991,16.8L148,446.4H120L148,368Zm0,0" transform="translate(-36 -110.4)"/><path class="d" d="M324,368l28,78.4H324l-10.024-28-5.991-16.8L296,368Zm0,0" transform="translate(-88.8 -110.4)"/><path class="e" d="M347.2,344v16.8H0V344Zm0,0" transform="translate(0 -103.2)"/><path class="f" d="M475.2,344H464v16.8h22.4V344Zm0,0" transform="translate(-139.2 -103.2)"/><path class="d" d="M216,0h44.8V16.8H216Zm0,0" transform="translate(-64.8)"/><path class="g" d="M420.8,80,409.6,94l11.2,14H376V80Zm0,0" transform="translate(-112.8 -24)"/><path class="h" d="M388.8,142.4A22.4,22.4,0,1,1,366.4,120,22.373,22.373,0,0,1,388.8,142.4Zm0,0" transform="translate(-103.2 -36)"/><path class="h" d="M86.4,232A22.4,22.4,0,1,1,64,254.4,22.373,22.373,0,0,1,86.4,232Zm0,0" transform="translate(-19.2 -69.6)"/><path class="e" d="M373.6,133.6A5.593,5.593,0,0,1,368,128V77.6a5.6,5.6,0,1,1,11.2,0V128A5.593,5.593,0,0,1,373.6,133.6Zm0,0" transform="translate(-110.4 -21.6)"/><path class="h" d="M267.569,146.938a5.6,5.6,0,0,0,0-4.277,5.535,5.535,0,0,0-1.214-1.827L255.16,129.64a5.6,5.6,0,0,0-7.919,7.919l2.111,2.111c-77.071,4.728-118.136,49.79-119.935,51.811a5.6,5.6,0,1,0,8.367,7.438c.4-.454,39.014-42.924,110.584-48l-1.127,1.127a5.6,5.6,0,1,0,7.919,7.919l11.195-11.195a5.531,5.531,0,0,0,1.214-1.827Zm0,0" transform="translate(-38.401 -38.399)"/><path class="i" d="M93.827,267.208a5.6,5.6,0,0,1-.06-11.2h.06a5.6,5.6,0,1,1,0,11.2Zm0,0" transform="translate(-26.46 -76.802)"/><g transform="translate(50.398 39.198)"><path class="b" d="M103.958,113.64a5.593,5.593,0,0,0-7.919,0L88.8,120.881l-7.241-7.241a5.6,5.6,0,0,0-7.919,7.919L80.88,128.8l-7.241,7.241a5.6,5.6,0,1,0,7.919,7.919l7.241-7.241,7.241,7.241a5.6,5.6,0,0,0,7.919-7.919L96.718,128.8l7.241-7.241A5.593,5.593,0,0,0,103.958,113.64Zm0,0" transform="translate(-71.997 -72.797)"/><path class="b" d="M216.04,87.958a5.6,5.6,0,1,0,7.919-7.919L216.718,72.8l7.241-7.241a5.6,5.6,0,1,0-7.919-7.919L208.8,64.88l-7.241-7.241a5.6,5.6,0,0,0-7.919,7.919l7.241,7.241-7.241,7.241a5.6,5.6,0,1,0,7.919,7.919l7.241-7.241Zm0,0" transform="translate(-107.997 -55.997)"/><path class="b" d="M239.958,265.64a5.593,5.593,0,0,0-7.919,0l-7.241,7.241-7.241-7.241a5.6,5.6,0,0,0-7.919,7.919l7.241,7.241-7.241,7.241a5.6,5.6,0,1,0,7.919,7.919l7.241-7.241,7.241,7.241a5.6,5.6,0,1,0,7.919-7.919l-7.241-7.241,7.241-7.241A5.593,5.593,0,0,0,239.958,265.64Zm0,0" transform="translate(-112.797 -118.397)"/><path class="b" d="M352.718,240.8l7.241-7.241a5.6,5.6,0,0,0-7.919-7.919L344.8,232.88l-7.241-7.241a5.6,5.6,0,1,0-7.919,7.919l7.241,7.241-7.241,7.241a5.6,5.6,0,1,0,7.919,7.919l7.241-7.241,7.241,7.241a5.6,5.6,0,1,0,7.919-7.919Zm0,0" transform="translate(-148.797 -106.397)"/></g></svg>