<svg xmlns="http://www.w3.org/2000/svg" width="350" height="350" viewBox="0 0 350 350"><defs><style>.a{fill:#fcbd5e;}.b{fill:#fff;}.c{fill:#183651;}.d{fill:#e1e6e8;}.e{fill:#cfd0d1;}.f{fill:#f05f50;}.g{fill:#2aa0da;}</style></defs><circle class="a" cx="175" cy="175" r="175" transform="translate(0 0)"/><path class="b" d="M145.689,7.877H27.017a19.021,19.021,0,0,0-19.14,19.14v183.2a19.376,19.376,0,0,0,19.14,19.14H145.689a19.376,19.376,0,0,0,19.14-19.14V27.017A19.02,19.02,0,0,0,145.689,7.877Z" transform="translate(-2.408 -2.408)"/><path class="c" d="M143.281,231.875H24.609A24.507,24.507,0,0,1,0,207.265V24.609A24.507,24.507,0,0,1,24.609,0H143.281A24.507,24.507,0,0,1,167.89,24.609v183.2C167.891,220.937,156.953,231.875,143.281,231.875ZM24.609,10.938A13.539,13.539,0,0,0,10.938,24.609v183.2a13.539,13.539,0,0,0,13.672,13.672H143.281a13.539,13.539,0,0,0,13.672-13.672V24.609a13.539,13.539,0,0,0-13.672-13.672Z"/><path class="d" d="M164.83,42.877V27.017a19.376,19.376,0,0,0-19.14-19.14H27.017a19.021,19.021,0,0,0-19.14,19.14V43.424" transform="translate(-2.408 -2.408)"/><path class="c" d="M162.422,45.937a5.167,5.167,0,0,1-5.469-5.469V24.609a13.539,13.539,0,0,0-13.672-13.672H24.609A13.539,13.539,0,0,0,10.938,24.609V41.016a5.167,5.167,0,0,1-5.469,5.469A5.167,5.167,0,0,1,0,41.016V24.609A24.507,24.507,0,0,1,24.609,0H143.281A24.507,24.507,0,0,1,167.89,24.609V41.016C167.891,43.75,165.156,45.937,162.422,45.937Z"/><path class="d" d="M7.877,261.514v26.25a19.376,19.376,0,0,0,19.14,19.14H145.689a19.376,19.376,0,0,0,19.14-19.14v-26.25" transform="translate(-2.408 -79.952)"/><path class="c" d="M143.281,309.177H24.609A24.507,24.507,0,0,1,0,284.568v-26.25a5.167,5.167,0,0,1,5.469-5.469,5.167,5.167,0,0,1,5.469,5.469v26.25a13.539,13.539,0,0,0,13.672,13.672H143.281a13.539,13.539,0,0,0,13.672-13.672v-26.25a5.469,5.469,0,0,1,10.938,0v26.25A24.506,24.506,0,0,1,143.281,309.177Z" transform="translate(0 -77.303)"/><g transform="translate(61.797 21.875)"><circle class="e" cx="9.843" cy="9.843" r="9.843" transform="translate(12.032 170.078)"/><path class="e" d="M129.478,31.508H92.29a3.281,3.281,0,0,0,0,6.562h37.187a3.152,3.152,0,0,0,3.281-3.281C133.306,33.149,131.665,31.508,129.478,31.508Z" transform="translate(-89.009 -31.508)"/></g><path class="f" d="M144.871,144.464V133.526l-10.39-1.641c-1.093-3.828-2.188-7.109-4.375-9.843l6.016-8.75-7.656-7.656-8.75,6.016a38.86,38.86,0,0,0-9.843-4.375l-1.641-10.391H97.293l-1.641,10.391c-3.828,1.093-7.109,2.188-9.843,4.375l-8.75-6.016L69.4,113.292l6.016,8.75a38.859,38.859,0,0,0-4.375,9.843l-10.391,1.641v10.938L71.044,146.1c1.093,3.828,2.188,7.109,4.375,9.843L69.4,164.7l7.656,7.656,8.75-6.016a38.859,38.859,0,0,0,9.843,4.375L97.293,181.1h10.938l1.641-10.391c3.828-1.093,7.109-2.188,9.843-4.375l8.75,6.016,7.656-7.656-6.016-8.75a38.861,38.861,0,0,0,4.375-9.843Zm-42.656,8.2A13.672,13.672,0,1,1,115.887,139,13.539,13.539,0,0,1,102.215,152.667Z" transform="translate(-18.543 -29.621)"/><path class="b" d="M388.219,220.554H208.3a15.285,15.285,0,0,0-15.312,15.312V368.21A15.285,15.285,0,0,0,208.3,383.522H388.219a15.285,15.285,0,0,0,15.312-15.312V235.866A15.649,15.649,0,0,0,388.219,220.554Z" transform="translate(-59.001 -67.429)"/><path class="c" d="M385.811,387.13H205.889a20.772,20.772,0,0,1-20.781-20.781V233.458a20.772,20.772,0,0,1,20.781-20.781H385.811a20.772,20.772,0,0,1,20.781,20.781V365.8C406.592,377.833,397.295,387.13,385.811,387.13ZM205.889,223.615a9.8,9.8,0,0,0-9.843,9.843V365.8a9.8,9.8,0,0,0,9.843,9.843H385.811a9.8,9.8,0,0,0,9.843-9.843V233.458a9.8,9.8,0,0,0-9.843-9.843Z" transform="translate(-56.592 -65.021)"/><rect class="g" width="166.796" height="102.812" transform="translate(155.859 175)"/><path class="d" d="M364.05,483.964H294.6l9.3-27.89h50.859Z" transform="translate(-90.066 -139.434)"/><g transform="translate(190.312 311.171)"><path class="c" d="M361.724,487.025H292.271a6.751,6.751,0,0,1-4.375-2.188,5.318,5.318,0,0,1-.547-4.922l9.3-27.89a5.253,5.253,0,0,1,4.922-3.828h50.859a5.252,5.252,0,0,1,4.922,3.828l9.3,26.8c.547.547.547,1.641.547,2.734A5.479,5.479,0,0,1,361.724,487.025Zm-61.8-10.938h54.141L348.6,459.135H305.944Z" transform="translate(-278.053 -448.197)"/><path class="c" d="M366.539,499.307H279.586a5.469,5.469,0,1,1,0-10.938h86.953a5.167,5.167,0,0,1,5.469,5.469A5.881,5.881,0,0,1,366.539,499.307Z" transform="translate(-274.117 -460.479)"/></g><g transform="translate(199.609 286.561)"><circle class="e" cx="7.656" cy="7.656" r="7.656"/><circle class="e" cx="7.656" cy="7.656" r="7.656" transform="translate(32.266)"/><circle class="e" cx="7.656" cy="7.656" r="7.656" transform="translate(63.984)"/></g><path class="b" d="M364.05,315.067v-8.75l-8.75-1.641a21.579,21.579,0,0,0-3.281-8.2l4.922-7.109-6.562-6.562-7.109,4.922a25.788,25.788,0,0,0-8.2-3.281l-1.641-8.75h-8.751l-1.641,8.75a21.579,21.579,0,0,0-8.2,3.281l-7.109-4.922-6.016,6.562,4.922,7.109a25.786,25.786,0,0,0-3.281,8.2l-8.75,1.641v8.75l8.75,1.641a21.579,21.579,0,0,0,3.281,8.2l-4.922,7.109,6.562,6.562,7.109-4.922a25.787,25.787,0,0,0,8.2,3.281l1.641,8.75h8.75l1.641-8.75a21.58,21.58,0,0,0,8.2-3.281l7.109,4.922,6.562-6.562-4.922-7.109a25.788,25.788,0,0,0,3.281-8.2ZM329.6,321.63a10.938,10.938,0,1,1,10.938-10.938A10.969,10.969,0,0,1,329.6,321.63Z" transform="translate(-90.066 -84.287)"/><path class="c" d="M385.975,170.554H375.038V159.617h10.938Zm0-21.875H375.038V137.741h10.938Zm0-21.875H375.038V115.866h10.938Zm-10.938-21.874a22.674,22.674,0,0,0-1.641-8.75l10.391-3.828c1.641,3.828,2.188,8.2,2.734,12.578H375.038Zm-6.562-16.406a37.662,37.662,0,0,0-7.109-6.016l5.469-9.3a35.812,35.812,0,0,1,9.843,8.2Zm-15.312-9.3a15.134,15.134,0,0,0-4.922-.547H343.32V67.742h4.922a31.171,31.171,0,0,1,7.109.547Zm-20.782,0H321.444V68.288h10.938Zm-21.875,0H299.569V68.288h10.938Zm-21.875,0H277.694V68.288h10.938Zm-21.875,0H255.819V68.288h10.938Zm-21.875,0H233.944V68.288h10.938Z" transform="translate(-71.523 -20.711)"/></svg>